# Blender v2.90.1 OBJ File: 'destructible-cartoonbox.blend'
# www.blender.org
mtllib destructible-cartoonbox1-chunk.mtl
o Cube.002_cell
v 1.000000 0.000000 -3.674746
v 1.000000 0.000000 -1.674746
v 0.940000 0.060000 -1.734746
v 0.940000 0.060000 -3.614746
v 1.000000 0.000000 -2.905515
v 0.940000 0.060000 -2.891669
v 1.000000 0.000000 -2.424732
v 0.940000 0.060000 -2.439733
v 1.000000 0.226316 -3.674746
v 1.000000 0.226316 -1.674746
v 1.000000 0.226316 -2.905515
v 1.000000 0.226316 -2.424732
v 1.000000 0.342450 -3.674746
v 1.000000 0.342450 -2.905515
v 1.000000 0.342450 -2.424732
v 1.000000 1.967060 -3.674746
v 1.000000 1.967060 -2.905515
v 1.000000 1.967060 -2.424732
v 1.000000 2.113858 -3.674746
v 1.000000 2.113858 -2.905515
v 1.000000 2.113858 -2.424732
v -0.125302 2.007021 -3.614746
v -0.031822 2.057660 -3.614746
v -0.125346 1.992452 -3.614746
v -0.125343 1.832298 -3.614746
v 0.006168 0.060000 -3.614746
v -0.124790 1.216838 -3.614746
v -0.125308 1.521847 -3.614746
v 0.940000 2.582983 -3.614746
v 0.940000 2.413388 -2.439733
v 0.940000 2.078610 -1.839083
v 0.940000 0.294971 -1.734746
v 0.936295 0.231687 -1.734746
v 0.926381 0.060000 -1.734746
v 0.940000 2.557769 -2.698777
v 0.940000 2.583177 -2.744558
v 0.940000 2.583269 -2.830372
v 0.940000 2.583247 -2.891669
v 1.000000 2.615395 -3.674746
v 0.072180 2.113858 -3.674746
v 1.000000 2.438431 -2.424732
v 1.000000 2.615678 -2.742833
v 1.000000 2.604098 -2.721967
v 1.000000 2.615720 -2.781945
v 1.000000 2.615675 -2.905515
v 1.000000 2.113858 -1.842392
v -0.148423 1.994560 -3.674746
v -0.106161 2.017454 -3.674746
v -0.148443 1.987973 -3.674746
v -0.148443 1.967060 -3.674746
v 1.000000 2.078600 -1.779134
v 1.000000 1.967060 -1.772609
v -0.025723 0.342450 -3.674746
v -0.148442 1.915568 -3.674746
v -0.147824 1.421052 -3.674746
v -0.148426 1.775213 -3.674746
v 1.000000 0.342450 -1.677575
v 1.000000 0.294091 -1.674746
v 0.996032 0.226316 -1.674746
v -0.012576 0.226316 -3.674746
v 0.013044 0.000000 -3.674746
v 0.987388 0.078668 -1.674746
v 0.982845 0.000000 -1.674746
v 0.327027 0.060000 -2.439733
v 0.153112 0.060000 -2.891669
v 0.005695 0.060000 -3.274856
v 0.008074 0.060000 -3.268564
v 0.012463 0.000000 -3.257227
v 0.013549 0.000000 -3.254355
v 0.147790 0.000000 -2.905515
v 0.332807 0.000000 -2.424732
v 0.366285 0.060000 -2.337718
v 0.392723 0.060000 -2.269041
v 0.382928 -0.000000 -2.294485
v 0.394897 0.000000 -2.263395
vt 0.403289 0.500000
vt 0.417806 0.500000
vt 0.417806 0.596154
vt 0.403289 0.596154
vt 0.403289 0.656252
vt 0.417806 0.656252
vt 0.417806 0.749646
vt 0.411761 0.750000
vt 0.403289 0.750000
vt 0.403289 0.750496
vt 0.507272 0.500000
vt 0.513561 0.500000
vt 0.513561 0.596154
vt 0.507272 0.596154
vt 0.507272 0.656252
vt 0.513561 0.656252
vt 0.513561 0.729044
vt 0.512051 0.736952
vt 0.507272 0.737767
vt 0.403289 0.373428
vt 0.417806 0.371785
vt 0.507272 0.356445
vt 0.508168 0.356445
vt 0.508450 0.356447
vt 0.509431 0.361730
vt 0.513561 0.384023
vt 0.375000 0.596154
vt 0.375000 0.656252
vt 0.541725 0.596154
vt 0.541728 0.611600
vt 0.541726 0.616489
vt 0.541076 0.619097
vt 0.531778 0.656252
vt 0.039129 0.039129
vt 0.037585 0.027827
vt 0.033782 0.000000
vt 0.074723 0.000000
vt 0.086550 0.086550
vt 1.000000 0.051509
vt 0.946100 0.000000
vt 0.975600 0.000000
vt 1.000000 0.023318
vt 1.000000 0.939728
vt 0.920644 0.870351
vt 0.884217 0.838504
vt 0.862103 0.815781
vt 0.119187 0.052410
vt 0.068181 0.000000
vt 0.150349 0.000000
vt 0.965986 0.838095
vt 1.000000 0.867832
vt 0.068771 0.068771
vt 0.059229 0.000000
vt 0.129950 0.000000
vt 0.150886 0.150886
vt 0.103060 0.103060
vt 0.760802 0.104154
vt 0.831621 0.104272
vt 0.969631 0.104502
vt 0.969288 0.969288
vt 0.932714 0.932714
vt 0.932993 0.228716
vt 0.227542 0.227542
vt 0.291601 0.656252
vt 0.268474 0.596154
vt 0.867832 0.867832
vt 0.948498 0.842363
vt 0.948491 0.000000
vt 0.976682 0.000000
vt 0.976690 0.928058
vt 0.939728 0.939728
vt 1.000000 0.931819
vt 0.937520 0.869299
vt 0.362348 0.293763
vt 0.068771 0.000000
vt 0.150886 0.000000
vt 0.406743 0.256018
vt 1.000000 0.849651
vt 1.000000 0.086550
vt 0.885747 0.000000
vt 0.948346 0.000000
vt 1.000000 0.039129
vt 0.050372 0.050372
vt 0.051654 0.000000
vt 0.114253 0.000000
vt 0.111418 0.111418
vt 0.909465 0.909465
vt 1.000000 0.870050
vt 1.000000 0.940771
vt 0.958736 0.958736
vt 0.033782 0.033782
vt 0.102752 0.000000
vt 0.227277 0.000000
vt 0.074723 0.074723
vt 0.946100 0.946100
vt 0.946061 0.842414
vt 0.945891 0.383071
vt 0.945749 0.000000
vt 0.975237 0.000000
vt 0.975369 0.354556
vt 0.975550 0.843219
vt 0.975600 0.975600
vt 0.958736 0.000000
vt 0.958741 0.125673
vt 0.958769 0.907993
vt 0.196829 0.146392
vt 0.050372 0.000000
vt 0.111418 0.000000
vt 0.909494 0.797721
vt 0.909467 0.062340
vt 0.909465 0.000000
vt 0.102752 0.102752
vt 1.000000 0.103060
vt 1.000000 0.227542
vt 0.227277 0.227277
vt 0.945749 0.945749
vt 1.000000 0.932714
vt 1.000000 0.969288
vt 0.975237 0.975237
vt 0.375000 0.750000
vt 0.375000 0.751811
vt 0.385611 0.750493
vt 0.389523 0.750000
vt 0.375000 0.656252
vt 0.499764 0.736125
vt 0.520455 0.656252
vt 0.375000 0.500000
vt 0.375000 0.596154
vt 0.530954 0.596154
vt 0.530937 0.500000
vt 0.529379 0.621804
vt 0.530949 0.615717
vt 0.530955 0.604305
vt 0.375000 0.500000
vt 0.375000 0.750000
vt 0.384834 0.751577
vt 0.375000 0.752144
vt 0.541710 0.500000
vt 0.293488 0.656252
vt 0.298708 0.669818
vt 0.302224 0.678950
vt 0.373189 0.750000
vt 0.251694 0.552549
vt 0.251558 0.552190
vt 0.251630 0.500000
vt 0.477204 0.356522
vt 0.496707 0.356447
vt 0.504437 0.356445
vt 0.372856 0.750000
vt 0.299362 0.676419
vt 0.297866 0.672533
vt 0.498469 0.370768
vt 0.495339 0.358338
vt 0.494438 0.358332
vt 0.484540 0.358332
vt 0.465352 0.358337
vt 0.446500 0.358406
vt 0.375000 0.375820
vt 0.250820 0.500000
vt 0.250757 0.545198
vt 0.251074 0.546035
vt 0.270361 0.596154
vt 0.375000 0.376630
vn 1.0000 0.0000 0.0000
vn 0.0000 0.0000 1.0000
vn 0.0000 0.0000 -1.0000
vn -0.9332 -0.0000 0.3593
vn -0.7062 0.0413 0.7068
vn -0.4383 0.7859 0.4362
vn -0.9937 -0.1125 -0.0014
vn 0.0000 -1.0000 0.0000
vn -0.7069 0.0408 0.7061
vn -0.4373 0.7855 0.4378
vn -0.9333 0.0028 0.3591
vn -0.4763 0.8793 0.0009
vn -0.9333 -0.0001 0.3591
vn -0.4755 0.8797 -0.0003
vn -0.9354 -0.0016 0.3537
vn -1.0000 0.0000 0.0000
vn 0.0000 1.0000 -0.0000
usemtl Strip1.002
s off
f 9/1/1 13/2/1 14/3/1 11/4/1
f 12/5/1 15/6/1 57/7/1 58/8/1 10/9/1
f 10/9/2 58/8/2 59/10/2
f 16/11/1 19/12/1 20/13/1 17/14/1
f 18/15/1 21/16/1 46/17/1 51/18/1 52/19/1
f 60/20/3 53/21/3 13/2/3 9/1/3
f 50/22/3 49/23/3 47/24/3 48/25/3 40/26/3 19/12/3 16/11/3
usemtl Strip2.002
f 5/27/1 11/4/1 12/5/1 7/28/1
f 11/4/1 14/3/1 15/6/1 12/5/1
f 20/13/1 45/29/1 44/30/1 42/31/1 43/32/1 41/33/1 21/16/1
f 14/3/1 17/14/1 18/15/1 15/6/1
f 17/14/1 20/13/1 21/16/1 18/15/1
f 49/34/4 50/35/4 54/36/4 25/37/4 24/38/4
f 73/39/4 72/40/4 74/41/4 75/42/4
f 62/43/5 59/44/5 58/45/5 57/46/5 52/47/5 51/48/5 31/49/5 32/50/5 33/51/5
f 43/52/6 42/53/6 36/54/6 35/55/6
f 55/56/7 53/57/7 60/58/7 61/59/7 68/60/7 66/61/7 26/62/7 27/63/7
f 71/64/8 70/65/8 5/27/8 7/28/8
f 33/66/9 34/67/9 73/68/9 75/69/9 63/70/9 62/71/9
f 51/72/10 46/73/10 41/74/10 43/75/10 35/76/10 30/77/10 31/78/10
f 24/79/11 22/80/11 47/81/11 49/82/11
f 48/83/12 47/84/12 22/85/12 23/86/12
f 37/87/12 36/88/12 42/89/12 44/90/12
f 54/91/13 56/92/13 28/93/13 25/94/13
f 72/95/13 64/96/13 65/97/13 67/98/13 69/99/13 70/100/13 71/101/13 74/102/13
f 44/103/14 45/104/14 39/105/14 40/106/14 48/107/14 23/108/14 29/109/14 38/110/14 37/111/14
f 56/112/15 55/113/15 27/114/15 28/115/15
f 67/116/15 66/117/15 68/118/15 69/119/15
usemtl Base.002
f 3/120/3 34/121/3 33/122/3 32/123/3
f 8/124/16 3/120/16 32/123/16 31/125/16 30/126/16
f 4/127/16 6/128/16 38/129/16 29/130/16
f 6/128/16 8/124/16 30/126/16 35/131/16 36/132/16 37/133/16 38/129/16
f 1/134/1 9/1/1 11/4/1 5/27/1
f 7/28/1 12/5/1 10/9/1 2/135/1
f 2/135/2 10/9/2 59/10/2 62/136/2 63/137/2
f 21/16/1 41/33/1 46/17/1
f 19/12/1 39/138/1 45/29/1 20/13/1
f 13/2/1 16/11/1 17/14/1 14/3/1
f 15/6/1 18/15/1 52/19/1 57/7/1
f 64/139/17 72/140/17 73/141/17 34/142/17 3/120/17 8/124/17
f 70/65/8 69/143/8 68/144/8 61/145/8 1/134/8 5/27/8
f 53/21/3 55/146/3 56/147/3 54/148/3 50/22/3 16/11/3 13/2/3
f 40/26/3 39/138/3 19/12/3
f 63/149/8 75/150/8 74/151/8 71/64/8 7/28/8 2/135/8
f 29/130/2 23/152/2 22/153/2 24/154/2 25/155/2 28/156/2 27/157/2 26/158/2 4/127/2
f 26/159/17 66/160/17 67/161/17 65/162/17 6/128/17 4/127/17
f 65/162/17 64/139/17 8/124/17 6/128/17
f 61/163/3 60/20/3 9/1/3 1/134/3
o Cube.002_cell.001
v -1.000000 0.000000 -2.905515
v -0.940000 0.060000 -2.891669
v -1.000000 0.000000 -2.424732
v -0.940000 0.060000 -2.439733
v -1.000000 0.226316 -2.905515
v -1.000000 0.226316 -2.424732
v -1.000000 0.342450 -2.905515
v -1.000000 0.342450 -2.424732
v -1.000000 1.967060 -3.674746
v -1.000000 1.967060 -2.905515
v -1.000000 2.113858 -2.905515
v -0.124846 2.007633 -3.614746
v -0.268487 2.007678 -3.614746
v -0.940000 2.007039 -3.614746
v -0.124484 1.658457 -3.614746
v -0.124468 1.632824 -3.614746
v -0.124498 1.216089 -3.614746
v -0.805551 1.215114 -3.614746
v -0.940000 1.215348 -3.614746
v -0.940000 2.157964 -2.891669
v -0.940000 0.060000 -3.274599
v -0.940000 2.159100 -2.886228
v -0.940000 2.183982 -2.766347
v -0.940000 2.088036 -2.486077
v -0.940000 2.078789 -2.459217
v -0.940000 1.872350 -2.439733
v -0.940000 0.121388 -2.274472
v -0.940000 0.060000 -2.268677
v -1.000000 2.155017 -2.905515
v -1.000000 2.113858 -3.102709
v -1.000000 2.172630 -2.821134
v -1.000000 2.183994 -2.766380
v -1.000000 2.113858 -2.561505
v -1.000000 1.994459 -3.674746
v -1.000000 2.083006 -2.471384
v -1.000000 2.078812 -2.459199
v -1.000000 1.967060 -2.448652
v -1.000000 0.342450 -3.357725
v -1.000000 1.419249 -3.674746
v -0.147938 1.995186 -3.674746
v -0.213182 1.995207 -3.674746
v -0.147909 1.967060 -3.674746
v -0.938405 1.419142 -3.674746
v -1.000000 1.713622 -2.424732
v -0.147551 1.621335 -3.674746
v -0.147543 1.609684 -3.674746
v -0.147557 1.420274 -3.674746
v -1.000000 0.342450 -2.295316
v -1.000000 0.226316 -2.284356
v -1.000000 0.226316 -3.323534
v -1.000000 0.028185 -2.265655
v -1.000000 0.000000 -2.262995
v -1.000000 0.000000 -3.256904
v 0.327170 0.060000 -2.439733
v 0.153440 0.060000 -2.891669
v 0.034171 0.060000 -3.201935
v 0.006062 0.060000 -3.275028
v -0.053394 0.060000 -3.275053
v 0.148110 0.000000 -2.905515
v 0.025680 0.000000 -3.224003
v 0.012838 0.000000 -3.257396
v -0.014325 0.000000 -3.257408
v 0.332929 0.000000 -2.424732
v 0.392770 0.060000 -2.269084
v 0.394939 0.000000 -2.263421
vt 0.403289 0.153846
vt 0.417806 0.153846
vt 0.417806 0.210372
vt 0.403289 0.206098
vt 0.507272 0.250000
vt 0.508446 0.250000
vt 0.508478 0.348352
vt 0.508477 0.356508
vt 0.507272 0.356511
vt 0.507272 0.153846
vt 0.513561 0.153846
vt 0.513561 0.178495
vt 0.403289 0.076201
vt 0.417806 0.077571
vt 0.417806 0.093748
vt 0.403289 0.093748
vt 0.125000 0.596154
vt 0.268514 0.596154
vt 0.291616 0.656252
vt 0.125000 0.656252
vt 0.375000 0.093748
vt 0.375000 0.153846
vt 0.493316 0.093748
vt 0.507272 0.096738
vt 0.052108 0.052108
vt 0.943465 0.052609
vt 0.943080 0.649220
vt 0.942947 0.854885
vt 0.942891 0.942891
vt 0.874963 0.874963
vt 0.874966 0.869287
vt 0.875452 0.115148
vt 0.114721 0.114721
vt 0.919659 0.919659
vt 0.919801 0.096993
vt 0.919818 0.000000
vt 0.963626 0.000000
vt 0.963617 0.052505
vt 0.963597 0.171579
vt 0.963485 0.815806
vt 0.963475 0.870370
vt 0.963459 0.963459
vt 0.103683 0.103683
vt 0.039515 0.000000
vt 0.086941 0.000000
vt 0.228119 0.228119
vt 0.932677 0.932677
vt 1.000000 0.948107
vt 1.000000 0.976292
vt 0.969242 0.969242
vt 0.512060 0.098057
vt 0.512239 0.099580
vt 0.513561 0.110845
vt 0.912268 0.912268
vt 0.911811 0.000000
vt 0.959721 0.000000
vt 0.960054 0.666862
vt 0.960201 0.960201
vt 1.000000 0.080182
vt 0.912268 0.000000
vt 0.960201 0.000000
vt 1.000000 0.036374
vt 1.000000 0.947871
vt 0.123386 0.071311
vt 0.052070 0.000000
vt 0.114638 0.000000
vt 1.000000 0.885308
vt 0.969237 0.000000
vt 0.969772 0.922767
vt 0.831745 0.784806
vt 0.760915 0.714011
vt 0.104185 0.057599
vt 0.104217 0.000000
vt 0.228579 0.000000
vt 0.228510 0.125726
vt 0.933146 0.830020
vt 0.932665 0.000000
vt 0.039515 0.039515
vt 0.052129 0.000000
vt 0.114692 0.000000
vt 0.086941 0.086941
vt 0.911811 0.911811
vt 1.000000 0.874963
vt 1.000000 0.942891
vt 0.959721 0.959721
vt 1.000000 0.114721
vt 0.885362 0.000000
vt 0.947930 0.000000
vt 1.000000 0.052108
vt 1.000000 0.963459
vt 0.987464 0.964164
vt 0.023718 0.000000
vt 0.051903 0.000000
vt 0.972697 0.921193
vt 1.000000 0.919659
vt 0.517497 0.136454
vt 0.516860 0.143299
vt 0.515871 0.153846
vt 0.948107 0.948107
vt 0.948104 0.632767
vt 0.948099 0.173440
vt 0.948097 0.000000
vt 0.976282 0.000000
vt 0.976284 0.163949
vt 0.976289 0.652596
vt 0.976292 0.976292
vt 0.104217 0.104217
vt 1.000000 0.103683
vt 1.000000 0.228119
vt 0.228579 0.228579
vt 0.932665 0.932665
vt 1.000000 0.932677
vt 1.000000 0.969242
vt 0.969237 0.969237
vt 0.299367 0.676416
vt 0.125000 0.676469
vt 0.375000 0.153846
vt 0.375000 0.204768
vt 0.446408 0.250000
vt 0.495340 0.250000
vt 0.504668 0.153846
vt 0.125000 0.656252
vt 0.125000 0.678999
vt 0.302230 0.678944
vt 0.293507 0.656252
vt 0.375000 0.093748
vt 0.504739 0.153123
vt 0.506276 0.137181
vt 0.500346 0.099911
vt 0.499775 0.096339
vt 0.487015 0.093748
vt 0.125000 0.596154
vt 0.270404 0.596154
vt 0.375000 0.197770
vt 0.477105 0.250000
vt 0.375000 0.073531
vt 0.378523 0.073864
vt 0.125000 0.552230
vt 0.248209 0.552167
vt 0.251605 0.552169
vt 0.253210 0.556343
vt 0.488233 0.356556
vt 0.487592 0.356557
vt 0.477161 0.356555
vt 0.477099 0.257699
vt 0.378794 0.071772
vt 0.375000 0.071001
vt 0.446394 0.267879
vt 0.446454 0.358444
vt 0.472211 0.358448
vt 0.473795 0.358446
vt 0.495377 0.358398
vt 0.495380 0.339297
vt 0.254544 0.554895
vt 0.250806 0.545175
vt 0.242900 0.545172
vt 0.125000 0.545232
vn -1.0000 0.0000 0.0000
vn 0.0000 0.0000 -1.0000
vn 0.0000 -1.0000 0.0000
vn -0.0009 0.9789 -0.2043
vn 0.0003 0.0940 0.9956
vn 0.9334 -0.0001 -0.3589
vn 0.0000 0.9461 0.3239
vn 0.0004 0.9455 0.3255
vn 0.9332 0.0010 -0.3594
vn -0.0005 -0.2824 -0.9593
vn 0.9333 0.0006 -0.3592
vn 0.0003 0.9791 -0.2032
vn 0.9334 -0.0001 -0.3588
vn 0.0004 -0.2819 -0.9594
vn 1.0000 0.0000 0.0000
vn 0.0000 1.0000 0.0000
vn 0.0000 0.0000 1.0000
usemtl Strip1.002
s off
f 80/164/18 82/165/18 113/166/18 125/167/18
f 84/168/19 109/169/19 116/170/19 115/171/19 117/172/19
f 85/173/18 86/174/18 105/175/18 109/169/18 84/168/18
f 124/176/18 123/177/18 83/178/18 81/179/18
usemtl Strip2.002
f 76/180/20 134/181/20 138/182/20 78/183/20
f 78/184/18 81/179/18 80/164/18 76/185/18
f 81/179/18 83/178/18 82/165/18 80/164/18
f 83/178/18 119/186/18 112/187/18 85/173/18 82/165/18
f 116/188/21 109/189/21 105/190/21 104/191/21 106/192/21 97/193/21 95/194/21 89/195/21 88/196/21
f 102/197/22 101/198/22 100/199/22 111/200/22 112/201/22 119/202/22 123/203/22 124/204/22 126/205/22
f 122/206/23 121/207/23 91/208/23 92/209/23
f 132/210/23 131/211/23 135/212/23 136/213/23
f 112/187/18 111/214/18 110/215/18 108/216/18 86/174/18 85/173/18
f 99/217/24 98/218/24 107/219/24 108/220/24 110/221/24
f 100/222/25 99/223/25 110/224/25 111/225/25
f 120/226/26 117/227/26 115/228/26 87/229/26 90/230/26
f 137/231/27 128/232/27 125/233/27 113/234/27 114/235/27 118/236/27 93/237/27 94/238/27 96/239/27 133/240/27
f 121/241/28 120/242/28 90/243/28 91/244/28
f 98/245/29 97/246/29 106/247/29 107/248/29
f 88/249/29 87/250/29 115/251/29 116/252/29
f 126/253/22 127/254/22 140/255/22 139/256/22 103/257/22 102/258/22
f 108/216/18 107/259/18 106/260/18 104/261/18 86/174/18
f 131/262/30 130/263/30 129/264/30 139/265/30 140/266/30 138/267/30 134/268/30 135/269/30
f 118/270/31 122/271/31 92/272/31 93/273/31
f 133/274/31 132/275/31 136/276/31 137/277/31
usemtl Base.002
f 78/183/20 138/182/20 140/278/20 127/279/20
f 77/280/32 96/281/32 94/282/32 89/283/32 95/284/32
f 79/285/33 103/286/33 139/287/33 129/288/33
f 79/289/32 77/280/32 95/284/32 97/290/32 98/291/32 99/292/32 100/293/32 101/294/32
f 77/295/33 79/285/33 129/288/33 130/296/33
f 76/185/18 80/164/18 125/167/18 128/297/18
f 86/174/18 104/261/18 105/175/18
f 82/165/18 85/173/18 84/168/18 114/298/18 113/166/18
f 127/299/18 126/300/18 124/176/18 81/179/18 78/184/18
f 128/301/20 137/302/20 136/303/20 135/304/20 134/181/20 76/180/20
f 117/172/19 120/305/19 121/306/19 122/307/19 118/308/19 114/298/19 84/168/19
f 101/294/32 102/309/32 103/310/32 79/289/32
f 123/177/18 119/186/18 83/178/18
f 94/282/34 93/311/34 92/312/34 91/313/34 90/314/34 87/315/34 88/316/34 89/283/34
f 130/296/33 131/317/33 132/318/33 133/319/33 96/320/33 77/295/33
o Cube.002_cell.002
v 1.000000 4.104869 -1.674746
v -1.000000 4.104869 -1.674746
v -0.940000 4.104869 -1.734746
v 0.940000 4.104869 -1.734746
v 0.061835 4.372084 -1.674746
v -0.107678 4.266981 -1.674746
v -0.102508 4.207204 -1.734746
v 0.034714 4.318563 -1.734746
v 1.000000 4.104869 -2.424732
v 0.940000 4.104869 -2.439733
v 0.061835 4.372084 -2.424732
v 0.034714 4.318563 -2.439733
v -1.000000 4.104869 -2.424732
v -0.940000 4.104869 -2.439733
v -0.107678 4.266981 -2.424732
v -0.102508 4.207204 -2.439733
v -1.000000 3.923249 -1.674746
v 1.000000 3.923249 -1.674746
v -1.000000 3.923249 -2.424732
v 1.000000 3.923249 -2.424732
v 1.000000 3.814697 -1.674746
v -1.000000 3.814697 -2.424732
v 1.000000 3.814697 -2.424732
v -1.000000 3.814697 -1.674746
v -1.000000 2.113858 -1.674746
v 1.000000 2.113858 -1.674746
v -1.000000 2.113858 -2.424732
v 0.034714 4.318563 -2.650240
v 0.061835 4.372084 -2.647300
v 1.000000 4.104869 -2.661617
v 0.940000 4.104869 -2.661637
v -1.000000 4.104869 -2.662177
v -0.732593 4.153450 -2.659537
v -0.107678 4.266981 -2.653112
v -0.102508 4.207204 -2.656383
v -0.940000 4.104869 -2.662177
v -0.708629 4.133141 -2.660641
v -0.940000 2.078853 -1.734746
v 0.940000 2.413050 -2.439733
v 0.940000 2.092117 -1.864317
v 0.940000 2.078426 -1.839766
v 0.940000 2.078334 -1.767811
v 0.940000 2.078367 -1.734746
v 0.940000 2.735999 -2.736585
v 0.940000 2.618611 -2.742965
v 0.940000 2.583248 -2.744889
v -0.940000 2.207376 -2.765315
v -0.940000 2.183397 -2.766619
v -0.940000 2.174928 -2.741944
v -0.940000 2.078197 -2.439733
v -0.940000 2.078221 -2.459121
v -0.940000 2.078173 -2.420960
v 1.000000 3.923249 -2.671561
v 1.000000 3.814697 -2.677504
v -1.000000 3.923249 -2.672049
v -1.000000 3.814697 -2.677949
v 1.000000 2.438061 -2.424732
v 1.000000 2.685152 -2.739349
v 1.000000 2.631735 -2.742252
v 1.000000 2.615644 -2.743127
v 1.000000 2.113858 -1.843452
v -1.000000 2.194252 -2.766028
v -1.000000 2.183352 -2.766621
v -1.000000 2.113858 -2.563423
v -1.000000 2.179503 -2.755405
v -0.047046 2.078681 -1.674746
v -1.000000 2.078928 -1.674746
v 1.000000 2.078555 -1.674746
v -1.000000 2.078190 -2.459110
v -1.000000 2.078167 -2.441805
v -1.000000 2.078184 -2.424732
v 1.000000 2.084636 -1.791059
v 1.000000 2.078381 -1.779842
v 1.000000 2.078339 -1.746966
v 1.000000 2.078359 -1.726915
vt 0.609020 0.000000
vt 0.614998 0.000000
vt 0.614998 0.093748
vt 0.609020 0.093748
vt 0.609020 0.656252
vt 0.614998 0.656252
vt 0.614998 0.750000
vt 0.609020 0.750000
vt 0.614998 1.000000
vt 0.609020 1.000000
vt 0.512049 0.750000
vt 0.512040 0.743479
vt 0.512039 0.740972
vt 0.512041 0.736863
vt 0.512309 0.735461
vt 0.513561 0.728912
vt 0.513561 0.750000
vt 0.512033 0.093748
vt 0.512065 0.000000
vt 0.513561 0.000000
vt 0.513561 0.093748
vt 0.512065 1.000000
vt 0.512054 0.880881
vt 0.513561 1.000000
vt 0.625000 0.656252
vt 0.625000 0.626641
vt 0.625000 0.628431
vt 0.625000 0.656252
vt 0.625000 0.093748
vt 0.625000 0.123429
vt 0.614998 0.124663
vt 0.609020 0.125400
vt 0.518073 0.136410
vt 0.517461 0.136484
vt 0.517245 0.135082
vt 0.513561 0.111085
vt 1.000000 0.963645
vt 0.660793 0.624386
vt 0.036504 0.000000
vt 0.080312 0.000000
vt 1.000000 0.919831
vt 1.000000 0.975964
vt 0.499349 0.475447
vt 1.000000 0.477395
vt 0.848836 0.848836
vt 1.000000 0.869945
vt 1.000000 0.940578
vt 0.930933 0.930933
vt 0.512033 0.098045
vt 0.512032 0.095882
vt 0.039966 0.039966
vt 0.023807 0.000000
vt 0.052377 0.000000
vt 0.087927 0.087927
vt 1.000000 0.129669
vt 0.947574 0.000000
vt 0.976144 0.000000
vt 1.000000 0.059005
vt 0.477395 0.477395
vt 0.080543 0.023634
vt 0.979534 0.023703
vt 1.000000 0.023704
vt 1.000000 0.052272
vt 0.177450 0.052209
vt 0.960366 0.947395
vt 1.000000 0.947398
vt 1.000000 0.975966
vt 0.975964 0.975964
vt 0.609020 0.624655
vt 0.614998 0.625398
vt 0.023807 0.023807
vt 0.747504 0.023720
vt 0.795984 0.023715
vt 0.877096 0.023705
vt 1.000000 0.151036
vt 1.000000 0.162449
vt 0.899805 0.052276
vt 0.052377 0.052377
vt 0.947574 0.947574
vt 1.000000 0.947568
vt 1.000000 0.976141
vt 0.976144 0.976144
vt 0.531757 0.656252
vt 0.541724 0.616452
vt 0.542627 0.616562
vt 0.545625 0.616925
vt 0.869945 0.869945
vt 0.870198 0.301474
vt 0.870331 0.000000
vt 0.940995 0.000000
vt 0.940856 0.314553
vt 0.940601 0.888818
vt 0.940578 0.940578
vt 0.625000 0.122296
vt 0.625000 0.123099
vt 0.625000 0.093748
vt 0.151036 0.151036
vt 0.448666 0.087117
vt 0.451126 0.120719
vt 0.162449 0.162449
vt 0.947568 0.947568
vt 0.947631 0.178079
vt 0.516485 0.058098
vt 0.529405 0.028008
vt 0.976207 0.178069
vt 0.976199 0.280164
vt 0.976194 0.341185
vt 0.976141 0.976141
vt 0.023704 0.023704
vt 0.036355 0.000000
vt 0.080169 0.000000
vt 0.065995 0.026558
vt 0.052272 0.052272
vt 0.947398 0.947398
vt 1.000000 0.848836
vt 1.000000 0.930933
vt 0.975966 0.975966
vt 0.036504 0.036504
vt 0.039966 0.000000
vt 0.087927 0.000000
vt 0.080312 0.080312
vt 0.625000 0.750000
vt 0.625000 1.000000
vt 0.625000 0.000000
vt 0.625000 0.000000
vt 0.625000 0.750000
vt 0.625000 1.000000
vt 0.625000 0.000000
vt 0.625000 0.093748
vt 0.625000 0.750000
vt 0.625000 0.750000
vt 0.625000 0.656252
vt 0.625000 0.656252
vt 0.625000 1.000000
vt 0.625000 1.000000
vt 0.625000 0.093748
vt 0.625000 0.123329
vt 0.625000 0.123124
vt 0.625000 0.122558
vt 0.625000 0.628259
vt 0.625000 0.000000
vt 0.520434 0.656252
vt 0.500598 0.732770
vt 0.499752 0.736035
vt 0.499747 0.745603
vt 0.499749 0.750000
vt 0.499738 0.093748
vt 0.499740 0.096326
vt 0.505717 0.133936
vt 0.506240 0.137217
vt 0.507722 0.137044
vt 0.499779 0.000000
vt 0.499737 0.091252
vt 0.499779 1.000000
vt 0.625000 0.626743
vt 0.540395 0.616777
vt 0.533139 0.615928
vt 0.530954 0.615672
vn -1.0000 0.0000 0.0000
vn 1.0000 0.0000 0.0000
vn 0.0000 0.0000 1.0000
vn 0.2739 0.9617 0.0000
vn 0.0004 -0.9462 -0.3235
vn -0.0001 -1.0000 0.0038
vn 0.4369 -0.7856 -0.4381
vn -0.0000 0.0543 -0.9985
vn -0.0003 -1.0000 0.0010
vn 0.4370 -0.7855 -0.4381
vn -0.1787 0.9839 -0.0000
vn 0.0003 0.0547 -0.9985
vn 0.0005 -1.0000 -0.0013
vn 0.0007 -0.9458 -0.3246
vn 0.0000 1.0000 0.0000
vn 0.9963 0.0862 0.0000
vn -0.2150 -0.8243 0.5237
vn -0.2297 -0.9733 0.0000
vn 0.1310 -0.8571 0.4981
vn 0.1213 -0.9926 -0.0000
vn -0.8920 0.4520 0.0000
vn 0.0000 0.0000 -1.0000
usemtl Strip1.002
s off
f 164/321/35 157/322/35 159/323/35 162/324/35
f 163/325/36 160/326/36 158/327/36 161/328/36
f 161/328/37 158/327/37 157/329/37 164/330/37
f 208/331/36 215/332/36 214/333/36 213/334/36 212/335/36 201/336/36 166/337/36
f 211/338/35 207/339/35 165/340/35 167/341/35
f 207/342/37 206/343/37 208/331/37 166/337/37 165/344/37
usemtl Strip2.002
f 149/345/38 170/346/38 169/347/38 151/348/38
f 159/323/35 153/349/35 172/350/35 195/351/35
f 162/324/35 159/323/35 195/351/35 196/352/35
f 167/341/35 162/324/35 196/352/35 202/353/35 203/354/35 205/355/35 204/356/35
f 209/357/39 204/358/39 205/359/39 189/360/39 191/361/39
f 215/362/40 208/363/40 206/364/40
f 181/365/41 180/366/41 212/367/41 213/368/41
f 204/356/35 209/369/35 210/370/35 211/338/35 167/341/35
f 203/371/42 202/372/42 187/373/42 188/374/42
f 186/375/42 185/376/42 199/377/42 200/378/42
f 206/379/43 207/380/43 211/381/43 210/382/43 192/383/43 178/384/43 183/385/43 182/386/43 214/387/43 215/388/43
f 194/389/36 193/390/36 160/326/36 163/325/36
f 202/391/42 196/392/42 195/393/42 172/394/42 173/395/42 177/396/42 176/397/42 187/398/42
f 185/399/42 184/400/42 198/401/42 199/402/42
f 197/403/36 200/404/36 199/405/36 198/406/36 194/389/36 163/325/36
f 180/407/44 179/408/44 186/409/44 200/410/44 197/411/44 201/412/44 212/413/44
f 174/414/45 173/415/45 172/350/45 153/349/45 155/416/45
f 173/417/46 174/418/46 175/419/46 177/420/46
f 184/421/46 171/422/46 168/423/46 169/424/46 170/425/46 193/426/46 194/427/46 198/428/46
f 193/390/36 170/346/36 149/345/36 160/326/36
f 210/429/47 209/430/47 191/431/47 190/432/47 192/433/47
f 182/434/47 181/435/47 213/436/47 214/437/47
f 205/438/48 203/439/48 188/440/48 189/441/48
usemtl Base.002
f 158/327/37 141/442/37 142/443/37 157/329/37
f 160/326/36 149/345/36 141/442/36 158/327/36
f 153/349/45 142/444/45 146/445/45 155/416/45
f 142/443/49 141/442/49 144/446/49 143/447/49
f 155/416/50 146/445/50 147/448/50 156/449/50
f 144/446/51 141/442/51 145/450/51 148/451/51
f 150/452/52 144/446/52 148/451/52 152/453/52
f 142/443/53 143/447/53 147/454/53 146/455/53
f 154/456/54 176/457/54 177/458/54 175/459/54 156/449/54
f 151/348/55 169/347/55 168/460/55 152/453/55
f 157/322/35 142/444/35 153/349/35 159/323/35
f 141/442/38 149/345/38 151/348/38 145/450/38
f 145/450/55 151/348/55 152/453/55 148/451/55
f 143/461/54 154/456/54 156/449/54 147/448/54
f 166/337/37 161/328/37 164/330/37 165/344/37
f 165/340/35 164/321/35 162/324/35 167/341/35
f 179/462/35 180/463/35 181/464/35 182/465/35 183/466/35 144/446/35 150/452/35
f 190/467/36 191/468/36 189/469/36 188/470/36 187/471/36 176/457/36 154/456/36
f 201/336/36 197/403/36 163/325/36 161/328/36 166/337/36
f 178/472/36 192/473/36 190/467/36 154/456/36 143/461/36
f 183/466/56 178/474/56 143/447/56 144/446/56
f 175/459/50 174/414/50 155/416/50 156/449/50
f 168/460/52 171/475/52 150/452/52 152/453/52
f 171/475/35 184/476/35 185/477/35 186/478/35 179/462/35 150/452/35
o Cube.002_cell.003
v 1.000000 4.104869 -3.674746
v -1.000000 4.104869 -3.674746
v -0.940000 4.104869 -3.614746
v 0.940000 4.104869 -3.614746
v 0.061835 4.372084 -3.674746
v -0.107678 4.266981 -3.674746
v -0.102508 4.207204 -3.614746
v 0.034714 4.318563 -3.614746
v 1.000000 4.104869 -2.905515
v -1.000000 4.104869 -2.905515
v -0.940000 4.104869 -2.891669
v 0.940000 4.104869 -2.891669
v 0.061835 4.372084 -2.905515
v -0.107678 4.266981 -2.905515
v -0.102508 4.207204 -2.891669
v 0.034714 4.318563 -2.891669
v 1.000000 3.923249 -3.674746
v -1.000000 3.923249 -3.674746
v 1.000000 3.923249 -2.905515
v -1.000000 3.923249 -2.905515
v 1.000000 3.814697 -3.674746
v -1.000000 3.814697 -3.674746
v 1.000000 3.814697 -2.905515
v -1.000000 3.814697 -2.905515
v -1.000000 2.113858 -3.674746
v 0.034714 4.318563 -2.650338
v 0.061835 4.372084 -2.647453
v 1.000000 4.104869 -2.662158
v 0.940000 4.104869 -2.662141
v -0.733466 4.153291 -2.659050
v -1.000000 4.104869 -2.661641
v -0.884761 4.125805 -2.660506
v -0.107678 4.266981 -2.653085
v -0.102508 4.207204 -2.656316
v -0.709544 4.133029 -2.660152
v -0.940000 4.104869 -2.661642
v -0.877331 4.112527 -2.661227
v -0.125022 2.007361 -3.614746
v -0.940000 2.006958 -3.614746
v -0.906270 2.006952 -3.614746
v 0.940000 2.583418 -3.614746
v -0.940000 2.157687 -2.891669
v 0.940000 2.735878 -2.736114
v 0.940000 2.583290 -2.744372
v 0.940000 2.583310 -2.891669
v -0.940000 2.183920 -2.765824
v 0.940000 2.583409 -3.599980
v 1.000000 3.923249 -2.671972
v 1.000000 3.814697 -2.677837
v -1.000000 3.923249 -2.671491
v -1.000000 3.814697 -2.677378
v 1.000000 2.615906 -3.674746
v 0.071806 2.113858 -3.674746
v -1.000000 2.154813 -2.905515
v -1.000000 2.113858 -3.101985
v 1.000000 2.685059 -2.738877
v 1.000000 2.615773 -2.742627
v 1.000000 2.615796 -2.905515
v 1.000000 2.615902 -3.667786
v -1.000000 2.183932 -2.765823
v -1.000000 1.994463 -3.674746
v -0.148128 1.994898 -3.674746
v -0.984594 1.994460 -3.674746
vt 0.609020 0.500000
vt 0.614998 0.500000
vt 0.614998 0.596154
vt 0.609020 0.596154
vt 0.609020 0.250000
vt 0.614998 0.250000
vt 0.609020 0.153846
vt 0.614998 0.153846
vt 0.508446 0.250000
vt 0.513561 0.178405
vt 0.513561 0.250000
vt 0.513561 0.383976
vt 0.508465 0.356484
vt 0.508446 0.251926
vt 0.625000 0.153846
vt 0.625000 0.123362
vt 0.625000 0.123220
vt 0.625000 0.123038
vt 0.625000 0.122292
vt 0.625000 0.153846
vt 0.625000 0.596154
vt 0.625000 0.626574
vt 0.614998 0.625347
vt 0.609020 0.624614
vt 0.132187 0.132187
vt 0.141553 0.040135
vt 0.222718 0.040118
vt 0.271228 0.040108
vt 1.000000 0.039958
vt 1.000000 0.087884
vt 0.141548 0.088061
vt 0.138120 0.138120
vt 0.614998 0.124593
vt 1.000000 0.940576
vt 0.224553 0.165603
vt 0.058848 0.000000
vt 0.129602 0.000000
vt 0.279446 0.149751
vt 1.000000 0.869866
vt 0.869866 0.869866
vt 0.885265 0.874535
vt 0.885339 0.000000
vt 0.947915 0.000000
vt 0.947899 0.180597
vt 0.947835 0.942777
vt 0.940576 0.940576
vt 0.976238 0.000000
vt 0.976117 0.634823
vt 0.976106 0.695826
vt 0.976086 0.797891
vt 0.529437 0.501506
vt 0.516532 0.458520
vt 0.947523 0.769332
vt 0.947669 0.000000
vt 0.162242 0.000000
vt 0.451218 0.330624
vt 0.448750 0.361755
vt 0.150851 0.000000
vt 0.150851 0.150851
vt 0.132187 0.000000
vt 0.138120 0.000000
vt 0.162242 0.162242
vt 0.947669 0.947669
vt 1.000000 0.870398
vt 1.000000 0.941152
vt 0.976238 0.976238
vt 0.609020 0.125329
vt 0.545620 0.616984
vt 0.541731 0.616515
vt 0.541732 0.596154
vt 0.052446 0.052446
vt 1.000000 0.052085
vt 1.000000 0.114661
vt 0.114997 0.114997
vt 0.039958 0.039958
vt 0.185616 0.039986
vt 0.390475 0.040025
vt 0.987695 0.040140
vt 1.000000 0.052446
vt 1.000000 0.114997
vt 0.973058 0.088055
vt 0.219103 0.087909
vt 0.087884 0.087884
vt 0.515860 0.153846
vt 0.517494 0.136385
vt 0.625000 0.628412
vt 0.625000 0.596154
vt 0.625000 0.250000
vt 0.625000 0.500000
vt 0.625000 0.500000
vt 0.625000 0.250000
vt 0.625000 0.500000
vt 0.625000 0.500000
vt 0.625000 0.596154
vt 0.625000 0.153846
vt 0.625000 0.250000
vt 0.625000 0.153846
vt 0.625000 0.250000
vt 0.625000 0.596154
vt 0.625000 0.626676
vt 0.625000 0.628246
vt 0.625000 0.122549
vt 0.541738 0.500000
vt 0.504651 0.153846
vt 0.495335 0.250000
vt 0.530964 0.500000
vt 0.530964 0.501964
vt 0.530957 0.596154
vt 0.625000 0.123257
vt 0.506272 0.137111
vt 0.541738 0.500870
vt 0.625000 0.123059
vt 0.625000 0.123202
vt 0.495335 0.254485
vt 0.495360 0.358375
vt 0.530956 0.615741
vt 0.540387 0.616839
vn 1.0000 0.0000 0.0000
vn 0.0000 0.0000 -1.0000
vn -1.0000 0.0000 0.0000
vn -0.1787 0.9839 0.0000
vn 0.0000 -0.0542 0.9985
vn 0.4761 -0.8794 -0.0001
vn 0.4758 -0.8796 -0.0005
vn 0.0003 -0.0540 0.9985
vn 0.0002 -0.0540 0.9985
vn 0.0005 -0.9791 0.2032
vn -0.0002 -0.9790 0.2041
vn 0.2739 0.9617 0.0000
vn 0.0000 1.0000 0.0000
vn -0.8920 0.4520 0.0000
vn 0.1213 -0.9926 0.0000
vn 0.1310 -0.8571 -0.4981
vn -0.2150 -0.8243 -0.5238
vn -0.2297 -0.9733 0.0000
vn 0.9963 0.0862 0.0000
vn -0.0000 0.0000 1.0000
usemtl Strip1.002
s off
f 236/479/57 232/480/57 234/481/57 238/482/57
f 237/483/58 233/484/58 232/480/58 236/479/58
f 239/485/59 235/486/59 233/484/59 237/483/59
f 276/487/59 270/488/59 240/489/59
f 268/490/58 277/491/58 278/492/58 276/487/58 240/489/58
usemtl Strip2.002
f 225/493/60 246/494/60 247/495/60 245/496/60 248/497/60 229/498/60
f 234/481/57 224/499/57 243/500/57 263/501/57
f 238/482/57 234/481/57 263/501/57 264/502/57
f 247/503/61 246/504/61 265/505/61 266/506/61 275/507/61 261/508/61 251/509/61 252/510/61
f 265/511/59 246/494/59 225/493/59 235/486/59
f 274/512/62 273/513/62 272/514/62 259/515/62 260/516/62 262/517/62
f 262/518/63 256/519/63 253/520/63 277/521/63 268/522/63 267/523/63 274/524/63
f 271/525/64 264/526/64 263/527/64 243/528/64 242/529/64 241/530/64 244/531/64 258/532/64
f 250/533/64 249/534/64 248/535/64 245/536/64
f 245/537/65 247/538/65 252/539/65 250/540/65
f 258/541/65 259/542/65 272/543/65 271/544/65
f 266/545/59 265/511/59 235/486/59 239/485/59
f 264/502/57 271/546/57 272/547/57 273/548/57 238/482/57
f 278/549/66 277/550/66 253/551/66 255/552/66
f 275/553/67 269/554/67 270/555/67 276/556/67 278/557/67 255/558/67 254/559/67 257/560/67 261/561/67
f 269/562/59 275/563/59 266/545/59 239/485/59
f 242/564/68 243/500/68 224/499/68 228/565/68
usemtl Base.002
f 235/486/59 225/493/59 217/566/59 233/484/59
f 233/484/58 217/566/58 216/567/58 232/480/58
f 224/499/68 216/567/68 220/568/68 228/565/68
f 216/567/69 217/566/69 218/569/69 219/570/69
f 228/565/70 220/568/70 223/571/70 231/572/70
f 226/573/71 218/569/71 222/574/71 230/575/71
f 218/569/72 217/566/72 221/576/72 222/574/72
f 216/567/73 219/570/73 223/571/73 220/568/73
f 219/570/74 227/577/74 231/572/74 223/571/74
f 221/576/75 229/498/75 230/575/75 222/574/75
f 217/566/60 225/493/60 229/498/60 221/576/60
f 232/480/57 216/567/57 224/499/57 234/481/57
f 227/577/74 244/578/74 241/579/74 231/572/74
f 229/498/75 248/497/75 249/580/75 230/575/75
f 240/489/58 237/483/58 236/479/58 267/581/58 268/490/58
f 241/579/70 242/564/70 228/565/70 231/572/70
f 257/582/57 254/583/57 218/569/57 226/573/57
f 256/584/59 262/585/59 260/586/59 227/577/59 219/570/59
f 251/587/57 261/588/57 257/582/57 226/573/57
f 273/548/57 274/589/57 267/581/57 236/479/57 238/482/57
f 249/580/71 250/590/71 252/591/71 251/587/71 226/573/71 230/575/71
f 254/583/76 255/592/76 253/593/76 256/584/76 219/570/76 218/569/76
f 270/488/59 269/562/59 239/485/59 237/483/59 240/489/59
f 260/586/59 259/594/59 258/595/59 244/578/59 227/577/59
o Cube.002_cell.004
v -1.000000 0.000000 -1.674746
v -0.940000 0.060000 -1.734746
v -1.000000 0.226316 -1.674746
v -1.000000 0.342450 -1.674746
v 1.000000 0.342450 -1.674746
v 1.000000 1.967060 -1.674746
v -1.000000 1.967060 -2.424732
v -1.000000 1.967060 -1.674746
v -0.868541 2.078906 -1.734746
v -0.940000 2.078886 -1.734746
v 0.940000 2.078961 -1.734746
v 0.940000 2.078957 -1.750627
v 0.940000 2.078724 -1.838363
v 0.940000 0.555267 -1.750956
v 0.940000 0.277379 -1.734746
v 0.937005 0.226136 -1.734746
v 0.926966 0.060000 -1.734746
v -0.940000 2.078423 -2.439733
v -0.940000 2.078410 -2.459838
v -0.940000 1.916898 -2.444592
v -0.940000 1.865468 -2.439733
v -0.940000 0.060000 -2.269146
v -0.966892 2.078918 -1.674746
v -1.000000 2.078909 -1.674746
v 1.000000 2.078978 -1.674746
v -1.000000 2.078416 -2.424732
v -1.000000 2.078393 -2.459859
v -1.000000 2.005223 -2.452952
v -1.000000 1.967060 -2.449346
v 1.000000 2.078976 -1.682112
v 1.000000 2.078721 -1.778329
v 1.000000 1.967060 -1.771922
v -1.000000 1.706545 -2.424732
v 1.000000 0.407997 -1.682473
v 1.000000 0.342450 -1.678649
v -1.000000 0.342450 -2.295848
v -1.000000 0.226316 -2.284875
v 1.000000 0.275542 -1.674746
v 0.998963 0.257796 -1.674746
v 0.997061 0.226316 -1.674746
v -1.000000 0.000000 -2.263492
v 0.983384 0.000000 -1.674746
v 0.392275 0.060000 -2.268812
v 0.321405 0.060000 -2.268838
v 0.611890 0.060000 -2.049589
v 0.494474 0.000000 -2.163295
v 0.394443 0.000000 -2.263148
v 0.362163 0.000000 -2.263160
vt 0.403289 0.000000
vt 0.417806 0.000000
vt 0.417806 0.077638
vt 0.403289 0.076266
vt 0.507272 0.000000
vt 0.512064 0.000000
vt 0.512043 0.093748
vt 0.507272 0.093748
vt 0.507272 0.750000
vt 0.512067 0.750000
vt 0.512064 0.995861
vt 0.512064 1.000000
vt 0.507272 1.000000
vt 0.403289 0.750367
vt 0.407225 0.750130
vt 0.409443 0.750000
vt 0.417806 0.750000
vt 0.417806 1.000000
vt 0.403289 1.000000
vt 0.507272 0.737853
vt 0.512056 0.737052
vt 0.512067 0.749079
vt 0.417806 0.749512
vt 0.512042 0.098139
vt 0.508907 0.097276
vt 0.507272 0.096825
vt 0.068312 0.068312
vt 1.000000 0.068255
vt 1.000000 0.150384
vt 0.150436 0.150436
vt 1.000000 0.921268
vt 0.905787 0.827042
vt 0.228485 0.149643
vt 1.000000 0.150130
vt 1.000000 0.329606
vt 0.502800 0.329292
vt 1.000000 0.826563
vt 0.848911 0.848911
vt 0.849616 0.000000
vt 0.931745 0.000000
vt 0.931693 0.062220
vt 0.930973 0.930973
vt 0.492926 0.093748
vt 0.034369 0.034369
vt 0.036300 0.000000
vt 0.080128 0.000000
vt 0.075864 0.075864
vt 0.948233 0.948233
vt 1.000000 0.948242
vt 1.000000 0.976425
vt 0.976421 0.976421
vt 1.000000 0.976421
vt 0.058106 0.034497
vt 0.164411 0.034483
vt 0.218961 0.034475
vt 0.859705 0.034388
vt 0.982074 0.034371
vt 1.000000 0.034369
vt 1.000000 0.075864
vt 0.975842 0.075867
vt 0.127777 0.075983
vt 1.000000 0.948233
vt 0.036300 0.036300
vt 0.078336 0.036297
vt 0.975829 0.036217
vt 1.000000 0.060402
vt 1.000000 0.132249
vt 0.947831 0.080051
vt 0.104188 0.080126
vt 0.080128 0.080128
vt 0.060402 0.060402
vt 0.996929 0.059486
vt 1.000000 0.068312
vt 1.000000 0.150436
vt 0.993378 0.131407
vt 0.132249 0.132249
vt 0.150130 0.150130
vt 0.023575 0.000000
vt 0.051758 0.000000
vt 0.329606 0.329606
vt 0.826563 0.826563
vt 0.856764 0.833837
vt 1.000000 0.848911
vt 1.000000 0.930973
vt 0.966214 0.927417
vt 0.931727 0.923787
vt 0.921268 0.921268
vt 0.375000 0.000000
vt 0.375000 0.071064
vt 0.486590 0.093748
vt 0.499752 0.093748
vt 0.499781 0.000000
vt 0.375000 0.000000
vt 0.375000 0.073593
vt 0.125000 0.676407
vt 0.295270 0.676448
vt 0.299305 0.676450
vt 0.311809 0.688931
vt 0.372923 0.750000
vt 0.125000 0.750000
vt 0.373267 0.750000
vt 0.331368 0.708133
vt 0.302164 0.678981
vt 0.292740 0.678977
vt 0.125000 0.678936
vt 0.125000 0.750000
vt 0.388435 0.750000
vt 0.385268 0.750398
vt 0.375000 0.751733
vt 0.375000 1.000000
vt 0.499781 1.000000
vt 0.499782 0.990498
vt 0.499785 0.750000
vt 0.489769 0.094394
vt 0.499751 0.096422
vt 0.499785 0.747888
vt 0.499771 0.736221
vt 0.405611 0.747844
vt 0.375000 0.752077
vt 0.375000 1.000000
vt 0.421416 0.749034
vn -1.0000 0.0000 0.0000
vn 0.0000 0.0000 1.0000
vn 1.0000 0.0000 0.0000
vn 0.0027 1.0000 -0.0027
vn 0.7062 -0.0427 -0.7067
vn 0.7067 -0.0405 -0.7063
vn 0.0004 -0.0940 -0.9956
vn 0.0002 -0.0941 -0.9956
vn -0.0003 1.0000 -0.0007
vn -0.0000 1.0000 -0.0002
vn 0.7059 -0.0412 -0.7071
vn 0.0000 -1.0000 -0.0000
vn -0.0000 1.0000 0.0000
vn 0.0000 0.0000 -1.0000
usemtl Strip1.002
s off
f 281/596/77 282/597/77 314/598/77 315/599/77
f 286/600/77 302/601/77 304/602/77 285/603/77
f 284/604/78 303/605/78 301/606/78 302/607/78 286/608/78
f 318/609/78 317/610/78 316/611/78 283/612/78 282/613/78 281/614/78
f 310/615/79 309/616/79 308/617/79 303/605/79 284/604/79
f 316/611/79 313/618/79 283/612/79
usemtl Strip2.002
f 285/603/77 304/602/77 305/619/77 306/620/77 307/621/77
f 308/622/80 309/623/80 291/624/80 290/625/80
f 317/626/81 318/627/81 320/628/81 324/629/81 323/630/81 295/631/81 294/632/81
f 292/633/82 291/634/82 309/635/82 310/636/82 312/637/82
f 307/621/77 311/638/77 285/603/77
f 306/639/83 305/640/83 297/641/83 298/642/83
f 322/643/83 321/644/83 325/645/83 326/646/83
f 326/647/84 319/648/84 315/649/84 314/650/84 311/651/84 307/652/84 306/653/84 298/654/84 299/655/84 300/656/84 322/657/84
f 305/658/85 304/659/85 302/660/85 301/661/85 287/662/85 288/663/85 296/664/85 297/665/85
f 301/666/86 303/667/86 308/668/86 290/669/86 289/670/86 287/671/86
f 324/672/87 325/673/87 321/674/87 323/675/87
f 294/676/87 293/677/87 292/678/87 312/679/87 313/680/87 316/681/87 317/682/87
usemtl Base.002
f 280/683/79 300/684/79 299/685/79 296/686/79 288/687/79
f 279/688/77 281/596/77 315/599/77 319/689/77
f 282/597/77 286/600/77 285/603/77 311/638/77 314/598/77
f 283/612/78 284/604/78 286/608/78 282/613/78
f 319/690/88 326/691/88 325/692/88 324/693/88 320/694/88 279/695/88
f 295/696/89 323/697/89 321/698/89 322/699/89 300/700/89 280/701/89
f 293/702/90 294/703/90 295/704/90 280/705/90 288/706/90 287/707/90 289/708/90
f 299/685/79 298/709/79 297/710/79 296/686/79
f 289/708/77 290/711/77 291/712/77 292/713/77 293/702/77
f 320/714/78 318/609/78 281/614/78 279/715/78
f 313/618/79 312/716/79 310/615/79 284/604/79 283/612/79
o Cube.002_cell.005
v -1.000000 0.000000 -3.674746
v -0.940000 0.060000 -3.614746
v -1.000000 0.226316 -3.674746
v -1.000000 0.342450 -3.674746
v -0.940000 1.216564 -3.614746
v -0.368148 1.217875 -3.614746
v -0.125392 1.217891 -3.614746
v 0.005769 0.060000 -3.614746
v -0.940000 0.155143 -3.302393
v -0.940000 0.060000 -3.274428
v -1.000000 0.342450 -3.357553
v -1.000000 1.420315 -3.674746
v -0.026191 0.342450 -3.674746
v -0.258301 1.422015 -3.674746
v -0.148480 1.422022 -3.674746
v -0.013036 0.226316 -3.674746
v -1.000000 0.226316 -3.323378
v 0.012600 0.000000 -3.674746
v -1.000000 0.043639 -3.269620
v -1.000000 0.000000 -3.256793
v 0.005573 0.060000 -3.274408
v 0.012359 0.000000 -3.256773
vt 0.403289 0.250000
vt 0.417806 0.250000
vt 0.417806 0.371726
vt 0.403289 0.373371
vt 0.403289 0.206079
vt 0.417806 0.210351
vt 0.056948 0.056948
vt 0.052327 0.030353
vt 1.000000 0.030673
vt 1.000000 0.067236
vt 0.114846 0.066937
vt 0.124920 0.124920
vt 0.772753 0.772753
vt 1.000000 0.772840
vt 1.000000 0.897235
vt 0.897196 0.897196
vt 1.000000 0.897196
vt 0.160169 0.056319
vt 0.817713 0.056811
vt 0.888560 0.056864
vt 1.000000 0.056948
vt 1.000000 0.124920
vt 0.352488 0.124435
vt 1.000000 0.772753
vt 0.969327 0.000000
vt 0.969693 0.865993
vt 0.831720 0.728170
vt 0.760920 0.657446
vt 0.102765 0.000000
vt 0.227160 0.000000
vt 0.933061 0.705141
vt 0.932764 0.000000
vt 0.375000 0.250000
vt 0.375000 0.375767
vt 0.446565 0.358326
vt 0.446564 0.326044
vt 0.446483 0.250000
vt 0.125000 0.500000
vt 0.125000 0.545255
vt 0.250741 0.545258
vt 0.250767 0.500000
vt 0.125000 0.500000
vt 0.251575 0.500000
vt 0.251545 0.552247
vt 0.125000 0.552244
vt 0.375000 0.250000
vt 0.375000 0.376575
vt 0.477163 0.250000
vt 0.477257 0.342712
vt 0.477258 0.356440
vt 0.380881 0.208464
vt 0.375000 0.204745
vt 0.375000 0.197756
vt 0.380455 0.199359
vn 0.0000 0.0000 -1.0000
vn -1.0000 0.0000 0.0000
vn -0.0000 0.2820 0.9594
vn -0.0006 0.2823 0.9593
vn 0.9936 0.1126 0.0006
vn 0.0000 0.0000 1.0000
vn 0.0000 1.0000 0.0000
vn 0.0000 -1.0000 0.0000
vn 1.0000 0.0000 0.0000
usemtl Strip1.002
s off
f 329/717/91 330/718/91 339/719/91 342/720/91
f 343/721/92 337/722/92 330/718/92 329/717/92
usemtl Strip2.002
f 345/723/93 346/724/93 348/725/93 347/726/93 336/727/93 335/728/93
f 332/729/93 333/730/93 341/731/93 340/732/93
f 340/733/94 338/734/94 337/735/94 343/736/94 345/737/94 335/738/94 331/739/94 332/740/94
f 348/741/95 344/742/95 342/743/95 339/744/95 341/745/95 333/746/95 334/747/95 347/748/95
usemtl Base.002
f 328/749/96 334/750/96 333/751/96 332/752/96 331/753/96
f 328/754/97 336/755/97 347/756/97 334/757/97
f 327/758/98 344/759/98 348/760/98 346/761/98
f 327/762/91 329/717/91 342/720/91 344/763/91
f 330/718/91 338/764/91 340/765/91 341/766/91 339/719/91
f 331/753/99 335/767/99 336/768/99 328/749/99
f 337/722/92 338/764/92 330/718/92
f 346/769/92 345/770/92 343/721/92 329/717/92 327/762/92
