# Blender v2.90.1 OBJ File: 'destructible-cartoonbox.blend'
# www.blender.org
mtllib destructible-cartoonbox3.mtl
o Cube.001
v 1.000000 0.957960 1.820835
v 1.000000 0.000000 1.820835
v 1.000000 0.957960 3.820835
v 1.000000 0.000000 3.820835
v -1.000000 0.957960 1.820835
v -1.000000 0.000000 1.820835
v -1.000000 0.957960 3.820835
v -1.000000 0.000000 3.820835
v 0.940000 0.060000 3.760835
v -0.940000 0.060000 3.760835
v -0.940000 0.957960 3.760835
v 0.940000 0.957960 3.760835
v -0.940000 0.060000 1.880835
v -0.940000 0.957960 1.880835
v 0.940000 0.060000 1.880835
v 0.940000 0.957960 1.880835
v 0.061835 1.225175 1.820835
v 0.061835 1.225175 3.820835
v -0.107678 1.120072 3.820835
v -0.107678 1.120072 1.820835
v -0.102508 1.060295 3.760835
v -0.102508 1.060295 1.880835
v 0.034714 1.171654 1.880835
v 0.034714 1.171654 3.760835
v -1.000000 0.000000 2.590066
v 1.000000 0.957960 2.590066
v -1.000000 0.957960 2.590066
v 1.000000 0.000000 2.590066
v -0.940000 0.060000 2.603912
v -0.940000 0.957960 2.603912
v 0.940000 0.060000 2.603912
v 0.940000 0.957960 2.603912
v 0.061835 1.225175 2.590066
v -0.107678 1.120072 2.590066
v -0.102508 1.060295 2.603912
v 0.034714 1.171654 2.603912
v -1.000000 0.000000 3.070850
v 1.000000 0.957960 3.070850
v -0.940000 0.060000 3.055849
v 0.940000 0.957960 3.055849
v 0.061835 1.225175 3.070850
v 0.034714 1.171654 3.055849
v -1.000000 0.957960 3.070850
v 1.000000 0.000000 3.070850
v -0.940000 0.957960 3.055849
v 0.940000 0.060000 3.055849
v -0.107678 1.120072 3.070850
v -0.102508 1.060295 3.055849
v 1.000000 0.226316 1.820835
v -1.000000 0.226316 3.820835
v 1.000000 0.226316 3.820835
v -1.000000 0.226316 1.820835
v 1.000000 0.226316 2.590066
v -1.000000 0.226316 2.590066
v -1.000000 0.226316 3.070850
v 1.000000 0.226316 3.070850
v -1.000000 0.342450 3.820835
v 1.000000 0.342450 1.820835
v 1.000000 0.342450 3.820835
v -1.000000 0.342450 1.820835
v 1.000000 0.342450 2.590066
v -1.000000 0.342450 2.590066
v -1.000000 0.342450 3.070850
v 1.000000 0.342450 3.070850
vt 0.403289 0.000000
vt 0.417806 0.000000
vt 0.417806 0.093748
vt 0.403289 0.093748
vt 0.403289 0.500000
vt 0.417806 0.500000
vt 0.417806 0.596154
vt 0.403289 0.596154
vt 0.403289 0.250000
vt 0.417806 0.250000
vt 0.403289 0.656252
vt 0.417806 0.656252
vt 0.417806 0.750000
vt 0.403289 0.750000
vt 0.403289 0.153846
vt 0.417806 0.153846
vt 0.417806 1.000000
vt 0.403289 1.000000
vt 0.625000 0.656252
vt 0.625000 0.596154
vt 0.625000 0.596154
vt 0.625000 0.656252
vt 0.625000 0.093748
vt 0.625000 0.153846
vt 0.625000 0.093748
vt 0.625000 0.153846
vt 0.125000 0.596154
vt 0.375000 0.596154
vt 0.375000 0.656252
vt 0.125000 0.656252
vt 0.375000 0.093748
vt 0.375000 0.153846
vt 0.625000 0.750000
vt 0.625000 1.000000
vt 0.625000 0.250000
vt 0.375000 0.750000
vt 0.125000 0.750000
vt 0.625000 0.500000
vt 0.375000 0.750000
vt 0.375000 1.000000
vt 0.625000 1.000000
vt 0.625000 0.750000
vt 0.375000 0.153846
vt 0.375000 0.250000
vt 0.625000 0.250000
vt 0.625000 0.153846
vt 0.125000 0.656252
vt 0.125000 0.750000
vt 0.375000 0.656252
vt 0.625000 0.656252
vt 0.375000 0.500000
vt 0.625000 0.500000
vt 0.625000 0.500000
vt 0.625000 0.000000
vt 0.625000 0.000000
vt 0.625000 0.000000
vt 0.625000 0.093748
vt 0.625000 0.500000
vt 0.625000 0.596154
vt 0.625000 0.250000
vt 0.625000 0.153846
vt 0.625000 0.750000
vt 0.625000 0.750000
vt 0.625000 0.250000
vt 0.625000 0.656252
vt 0.625000 1.000000
vt 0.625000 1.000000
vt 0.625000 0.596154
vt 0.625000 0.093748
vt 0.375000 0.596154
vt 0.125000 0.500000
vt 0.125000 0.596154
vt 0.375000 0.093748
vt 0.125000 0.500000
vt 0.375000 0.500000
vt 0.375000 0.000000
vt 0.625000 0.000000
vt 0.375000 0.000000
vt 0.375000 0.250000
vt 0.375000 1.000000
vn -1.0000 0.0000 0.0000
vn 1.0000 0.0000 0.0000
vn 0.0000 0.0000 -1.0000
vn 0.0000 0.0000 1.0000
vn 0.2739 0.9617 0.0000
vn -0.1787 0.9839 0.0000
vn 0.0000 -1.0000 0.0000
vn 0.0000 1.0000 0.0000
vn 0.9963 0.0862 0.0000
vn -0.8920 0.4520 0.0000
vn 0.1213 -0.9926 0.0000
vn -0.2150 -0.8243 0.5237
vn 0.1310 -0.8571 -0.4981
vn -0.2297 -0.9733 0.0000
vn -0.2150 -0.8243 -0.5237
vn 0.1310 -0.8571 0.4981
usemtl Strip1.001
s off
f 50/1/1 57/2/1 63/3/1 55/4/1
f 49/5/2 58/6/2 61/7/2 53/8/2
f 52/9/3 60/10/3 58/6/3 49/5/3
f 56/11/2 64/12/2 59/13/2 51/14/2
f 54/15/1 62/16/1 60/10/1 52/9/1
f 51/14/4 59/13/4 57/17/4 50/18/4
usemtl Strip2.001
f 38/19/5 26/20/5 33/21/5 41/22/5
f 63/3/1 43/23/1 27/24/1 62/16/1
f 27/24/6 43/23/6 47/25/6 34/26/6
f 61/7/2 26/20/2 38/19/2 64/12/2
f 25/27/7 28/28/7 44/29/7 37/30/7
f 28/28/2 53/8/2 56/11/2 44/29/2
f 37/31/1 55/4/1 54/15/1 25/32/1
f 53/8/2 61/7/2 64/12/2 56/11/2
f 55/4/1 63/3/1 62/16/1 54/15/1
usemtl Base.001
f 59/13/4 3/33/4 7/34/4 57/17/4
f 62/16/1 27/24/1 5/35/1 60/10/1
f 37/30/7 44/29/7 4/36/7 8/37/7
f 64/12/2 38/19/2 3/33/2 59/13/2
f 60/10/3 5/35/3 1/38/3 58/6/3
f 9/39/3 10/40/3 11/41/3 12/42/3
f 29/43/2 13/44/2 14/45/2 30/46/2
f 39/47/8 10/48/8 9/39/8 46/49/8
f 46/49/1 9/39/1 12/42/1 40/50/1
f 13/44/4 15/51/4 16/52/4 14/45/4
f 26/20/5 1/38/5 17/53/5 33/21/5
f 43/23/6 7/54/6 19/55/6 47/25/6
f 1/38/8 5/35/8 14/45/8 16/52/8
f 7/34/8 3/33/8 12/42/8 11/41/8
f 47/25/9 19/55/9 21/56/9 48/57/9
f 33/21/10 17/53/10 23/58/10 36/59/10
f 30/46/11 14/45/11 22/60/11 35/61/11
f 12/42/12 3/33/12 18/62/12 24/63/12
f 14/45/13 5/35/13 20/64/13 22/60/13
f 40/50/14 12/42/14 24/63/14 42/65/14
f 1/38/15 16/52/15 23/58/15 17/53/15
f 7/34/16 11/41/16 21/66/16 19/67/16
f 16/52/14 32/68/14 36/59/14 23/58/14
f 45/69/11 30/46/11 35/61/11 48/57/11
f 41/22/10 33/21/10 36/59/10 42/65/10
f 20/64/9 34/26/9 35/61/9 22/60/9
f 5/35/6 27/24/6 34/26/6 20/64/6
f 15/51/1 31/70/1 32/68/1 16/52/1
f 13/71/8 29/72/8 31/70/8 15/51/8
f 39/73/2 29/43/2 30/46/2 45/69/2
f 58/6/2 1/38/2 26/20/2 61/7/2
f 6/74/7 2/75/7 28/28/7 25/27/7
f 57/2/1 7/54/1 43/23/1 63/3/1
f 10/76/2 39/73/2 45/69/2 11/77/2
f 3/33/5 38/19/5 41/22/5 18/62/5
f 18/62/10 41/22/10 42/65/10 24/63/10
f 11/77/11 45/69/11 48/57/11 21/56/11
f 32/68/14 40/50/14 42/65/14 36/59/14
f 34/26/9 47/25/9 48/57/9 35/61/9
f 31/70/1 46/49/1 40/50/1 32/68/1
f 29/72/8 39/47/8 46/49/8 31/70/8
f 8/78/1 50/1/1 55/4/1 37/31/1
f 2/75/2 49/5/2 53/8/2 28/28/2
f 6/79/3 52/9/3 49/5/3 2/75/3
f 44/29/2 56/11/2 51/14/2 4/36/2
f 25/32/1 54/15/1 52/9/1 6/79/1
f 4/36/4 51/14/4 50/18/4 8/80/4
