# Blender v2.83.19 OBJ File: 'seerose.blend'
# www.blender.org
mtllib waterlily_big.mtl
o Waterlily_Cylinder.015
v -0.009434 0.005353 -0.417095
v 0.027839 0.005353 -0.413424
v 0.063679 0.005353 -0.402552
v 0.063679 0.030774 -0.402552
v 0.096709 0.005353 -0.384896
v 0.096709 0.030774 -0.384896
v 0.125661 0.005353 -0.361137
v 0.125661 0.030774 -0.361137
v 0.149421 0.005353 -0.332185
v 0.149421 0.030774 -0.332185
v 0.167076 0.005353 -0.299155
v 0.167076 0.030774 -0.299155
v 0.177948 0.005353 -0.263314
v 0.177948 0.030774 -0.263314
v 0.181619 0.005353 -0.226042
v 0.177948 0.005353 -0.188769
v 0.177948 0.030774 -0.188769
v 0.167076 0.005353 -0.152929
v 0.149421 0.005353 -0.119898
v 0.125661 0.005353 -0.090947
v 0.096709 0.005353 -0.067187
v 0.063679 0.005353 -0.049532
v 0.063679 0.030774 -0.049532
v 0.027839 0.005353 -0.038660
v 0.027839 0.030774 -0.038660
v -0.009434 0.005353 -0.034989
v -0.009434 0.030774 -0.034989
v -0.046707 0.005353 -0.038660
v -0.046707 0.030774 -0.038660
v -0.082547 0.005353 -0.049532
v -0.115577 0.005353 -0.067187
v -0.144529 0.005353 -0.090947
v -0.144529 0.030774 -0.090947
v -0.168289 0.005353 -0.119898
v -0.168289 0.030774 -0.119898
v -0.185944 0.005353 -0.152929
v -0.196816 0.005353 -0.188769
v -0.200487 0.005353 -0.226042
v -0.200487 0.030774 -0.226042
v -0.196816 0.005353 -0.263314
v -0.185944 0.005353 -0.299155
v -0.185944 0.030774 -0.299155
v -0.168289 0.005353 -0.332185
v -0.168289 0.030774 -0.332185
v -0.144529 0.005353 -0.361137
v -0.144529 0.030774 -0.361137
v -0.115577 0.005353 -0.384897
v -0.082547 0.005353 -0.402552
v -0.082547 0.030774 -0.402552
v -0.046706 0.005353 -0.413424
v -0.009434 0.030774 -0.417095
v 0.027839 0.030774 -0.413424
v 0.181619 0.030774 -0.226042
v 0.167076 0.030774 -0.152929
v 0.149421 0.030774 -0.119898
v 0.125661 0.030774 -0.090947
v 0.096709 0.030774 -0.067187
v -0.082547 0.030774 -0.049532
v -0.115577 0.030774 -0.067187
v -0.185944 0.030774 -0.152929
v -0.196816 0.030774 -0.188769
v -0.196816 0.030774 -0.263314
v -0.115577 0.030774 -0.384897
v -0.046706 0.030774 -0.413424
v -0.009434 0.012256 -0.393001
v 0.023138 0.012256 -0.389793
v 0.054459 0.012256 -0.380292
v 0.083324 0.012256 -0.364863
v 0.108624 0.012256 -0.344100
v 0.129388 0.012256 -0.318799
v 0.144816 0.012256 -0.289934
v 0.154317 0.012256 -0.258614
v 0.157526 0.012256 -0.226042
v 0.154317 0.012256 -0.193469
v 0.144816 0.012256 -0.162149
v 0.129388 0.012256 -0.133284
v 0.108624 0.012256 -0.107983
v 0.083324 0.012256 -0.087220
v 0.054459 0.012256 -0.071791
v 0.023138 0.012256 -0.062290
v -0.009434 0.012256 -0.059082
v -0.042006 0.012256 -0.062290
v -0.073327 0.012256 -0.071791
v -0.102192 0.012256 -0.087220
v -0.127492 0.012256 -0.107984
v -0.148256 0.012256 -0.133284
v -0.163685 0.012256 -0.162149
v -0.173185 0.012256 -0.193470
v -0.176393 0.012256 -0.226042
v -0.173185 0.012256 -0.258614
v -0.163684 0.012256 -0.289934
v -0.148256 0.012256 -0.318800
v -0.127492 0.012256 -0.344100
v -0.102192 0.012256 -0.364864
v -0.073326 0.012256 -0.380292
v -0.042006 0.012256 -0.389793
vt 1.000000 0.500000
vt 1.000000 1.000000
vt 0.968750 1.000000
vt 0.968750 0.500000
vt 0.937500 1.000000
vt 0.937500 0.500000
vt 0.906250 1.000000
vt 0.906250 0.500000
vt 0.875000 1.000000
vt 0.875000 0.500000
vt 0.843750 1.000000
vt 0.843750 0.500000
vt 0.812500 1.000000
vt 0.812500 0.500000
vt 0.781250 1.000000
vt 0.781250 0.500000
vt 0.750000 1.000000
vt 0.750000 0.500000
vt 0.718750 1.000000
vt 0.718750 0.500000
vt 0.687500 1.000000
vt 0.687500 0.500000
vt 0.656250 1.000000
vt 0.656250 0.500000
vt 0.625000 1.000000
vt 0.625000 0.500000
vt 0.593750 1.000000
vt 0.593750 0.500000
vt 0.562500 1.000000
vt 0.562500 0.500000
vt 0.531250 1.000000
vt 0.531250 0.500000
vt 0.500000 1.000000
vt 0.500000 0.500000
vt 0.468750 1.000000
vt 0.468750 0.500000
vt 0.437500 1.000000
vt 0.437500 0.500000
vt 0.406250 1.000000
vt 0.406250 0.500000
vt 0.375000 1.000000
vt 0.375000 0.500000
vt 0.343750 1.000000
vt 0.343750 0.500000
vt 0.312500 1.000000
vt 0.312500 0.500000
vt 0.281250 1.000000
vt 0.281250 0.500000
vt 0.250000 1.000000
vt 0.250000 0.500000
vt 0.218750 1.000000
vt 0.218750 0.500000
vt 0.187500 1.000000
vt 0.187500 0.500000
vt 0.156250 1.000000
vt 0.156250 0.500000
vt 0.125000 1.000000
vt 0.125000 0.500000
vt 0.093750 1.000000
vt 0.093750 0.500000
vt 0.062500 1.000000
vt 0.062500 0.500000
vt 0.031250 1.000000
vt 0.031250 0.500000
vt 0.000000 1.000000
vt 0.000000 0.500000
vt 0.750000 0.490000
vt 0.796822 0.485388
vt 0.841844 0.471731
vt 0.883337 0.449553
vt 0.919706 0.419706
vt 0.949553 0.383337
vt 0.971731 0.341844
vt 0.985388 0.296822
vt 0.990000 0.250000
vt 0.985388 0.203178
vt 0.971731 0.158156
vt 0.949553 0.116663
vt 0.919706 0.080294
vt 0.883337 0.050447
vt 0.841844 0.028269
vt 0.796822 0.014612
vt 0.750000 0.010000
vt 0.703178 0.014612
vt 0.658156 0.028269
vt 0.616663 0.050447
vt 0.580294 0.080294
vt 0.550447 0.116663
vt 0.528269 0.158156
vt 0.514611 0.203179
vt 0.510000 0.250000
vt 0.514612 0.296822
vt 0.528269 0.341844
vt 0.550447 0.383337
vt 0.580295 0.419706
vt 0.616663 0.449553
vt 0.658156 0.471731
vt 0.703179 0.485389
vt 0.343750 1.000000
vt 0.312500 1.000000
vt 0.296822 0.485388
vt 0.250000 0.490000
vt 0.203179 0.485389
vt 0.158156 0.471731
vt 0.116663 0.449553
vt 0.080295 0.419706
vt 0.050447 0.383337
vt 0.028269 0.341844
vt 0.014612 0.296822
vt 0.010000 0.250000
vt 0.014611 0.203179
vt 0.028269 0.158156
vt 0.050447 0.116663
vt 0.080294 0.080294
vt 0.116663 0.050447
vt 0.158156 0.028269
vt 0.203178 0.014612
vt 0.250000 0.010000
vt 0.296822 0.014612
vt 0.341844 0.028269
vt 0.383337 0.050447
vt 0.419706 0.080294
vt 0.449553 0.116663
vt 0.471731 0.158156
vt 0.485388 0.203178
vt 0.490000 0.250000
vt 0.485388 0.296822
vt 0.471731 0.341844
vt 0.449553 0.383337
vt 0.419706 0.419706
vt 0.383337 0.449553
vt 0.341844 0.471731
vt 0.750000 1.000000
vt 0.718750 1.000000
vt 0.281250 1.000000
vt 0.687500 1.000000
vt 0.250000 1.000000
vt 0.656250 1.000000
vt 0.218750 1.000000
vt 0.625000 1.000000
vt 0.187500 1.000000
vt 0.593750 1.000000
vt 0.156250 1.000000
vt 0.562500 1.000000
vt 1.000000 1.000000
vt 0.968750 1.000000
vt 0.125000 1.000000
vt 0.531250 1.000000
vt 0.937500 1.000000
vt 0.093750 1.000000
vt 0.500000 1.000000
vt 0.906250 1.000000
vt 0.062500 1.000000
vt 0.468750 1.000000
vt 0.875000 1.000000
vt 0.031250 1.000000
vt 0.437500 1.000000
vt 0.843750 1.000000
vt 0.000000 1.000000
vt 0.406250 1.000000
vt 0.812500 1.000000
vt 0.375000 1.000000
vt 0.781250 1.000000
vn 0.0980 0.0000 -0.9952
vn 0.2903 0.0000 -0.9569
vn 0.4714 0.0000 -0.8819
vn 0.6344 0.0000 -0.7730
vn 0.7730 0.0000 -0.6344
vn 0.8819 0.0000 -0.4714
vn 0.9569 0.0000 -0.2903
vn 0.9952 0.0000 -0.0980
vn 0.9952 0.0000 0.0980
vn 0.9569 0.0000 0.2903
vn 0.8819 0.0000 0.4714
vn 0.7730 0.0000 0.6344
vn 0.6344 0.0000 0.7730
vn 0.4714 0.0000 0.8819
vn 0.2903 0.0000 0.9569
vn 0.0980 0.0000 0.9952
vn -0.0980 0.0000 0.9952
vn -0.2903 0.0000 0.9569
vn -0.4714 0.0000 0.8819
vn -0.6344 0.0000 0.7730
vn -0.7730 0.0000 0.6344
vn -0.8819 0.0000 0.4714
vn -0.9569 0.0000 0.2903
vn -0.9952 0.0000 0.0980
vn -0.9952 0.0000 -0.0980
vn -0.9569 0.0000 -0.2903
vn -0.8819 0.0000 -0.4714
vn -0.7730 0.0000 -0.6344
vn -0.6344 0.0000 -0.7730
vn -0.4714 0.0000 -0.8819
vn -0.2903 0.0000 -0.9569
vn -0.0980 0.0000 -0.9952
vn 0.0000 -1.0000 0.0000
vn 0.5391 0.7915 -0.2881
vn 0.0000 1.0000 0.0000
vn -0.6083 0.7915 -0.0599
vn 0.5849 0.7915 -0.1774
vn -0.5849 0.7915 -0.1774
vn 0.6083 0.7915 -0.0599
vn -0.5391 0.7915 -0.2881
vn 0.6083 0.7915 0.0599
vn -0.4725 0.7915 -0.3878
vn 0.5849 0.7915 0.1774
vn -0.3878 0.7915 -0.4725
vn 0.5391 0.7915 0.2881
vn -0.2881 0.7915 -0.5391
vn -0.0599 0.7915 0.6083
vn 0.4725 0.7915 0.3878
vn -0.1774 0.7915 -0.5849
vn -0.1774 0.7915 0.5849
vn 0.3878 0.7915 0.4725
vn -0.0599 0.7915 -0.6083
vn -0.2881 0.7915 0.5391
vn 0.2881 0.7915 0.5391
vn 0.0599 0.7915 -0.6083
vn -0.3878 0.7915 0.4725
vn 0.1774 0.7915 0.5849
vn 0.1774 0.7915 -0.5849
vn -0.4725 0.7915 0.3878
vn 0.0599 0.7915 0.6083
vn 0.2881 0.7915 -0.5391
vn -0.5391 0.7915 0.2881
vn 0.3878 0.7915 -0.4725
vn -0.5849 0.7915 0.1774
vn 0.4725 0.7915 -0.3878
vn -0.6083 0.7915 0.0599
usemtl Material.004
s off
f 1/1/1 51/2/1 52/3/1 2/4/1
f 2/4/2 52/3/2 4/5/2 3/6/2
f 3/6/3 4/5/3 6/7/3 5/8/3
f 5/8/4 6/7/4 8/9/4 7/10/4
f 7/10/5 8/9/5 10/11/5 9/12/5
f 9/12/6 10/11/6 12/13/6 11/14/6
f 11/14/7 12/13/7 14/15/7 13/16/7
f 13/16/8 14/15/8 53/17/8 15/18/8
f 15/18/9 53/17/9 17/19/9 16/20/9
f 16/20/10 17/19/10 54/21/10 18/22/10
f 18/22/11 54/21/11 55/23/11 19/24/11
f 19/24/12 55/23/12 56/25/12 20/26/12
f 20/26/13 56/25/13 57/27/13 21/28/13
f 21/28/14 57/27/14 23/29/14 22/30/14
f 22/30/15 23/29/15 25/31/15 24/32/15
f 24/32/16 25/31/16 27/33/16 26/34/16
f 26/34/17 27/33/17 29/35/17 28/36/17
f 28/36/18 29/35/18 58/37/18 30/38/18
f 30/38/19 58/37/19 59/39/19 31/40/19
f 31/40/20 59/39/20 33/41/20 32/42/20
f 32/42/21 33/41/21 35/43/21 34/44/21
f 34/44/22 35/43/22 60/45/22 36/46/22
f 36/46/23 60/45/23 61/47/23 37/48/23
f 37/48/24 61/47/24 39/49/24 38/50/24
f 38/50/25 39/49/25 62/51/25 40/52/25
f 40/52/26 62/51/26 42/53/26 41/54/26
f 41/54/27 42/53/27 44/55/27 43/56/27
f 43/56/28 44/55/28 46/57/28 45/58/28
f 45/58/29 46/57/29 63/59/29 47/60/29
f 47/60/30 63/59/30 49/61/30 48/62/30
f 48/62/31 49/61/31 64/63/31 50/64/31
f 50/64/32 64/63/32 51/65/32 1/66/32
f 1/67/33 2/68/33 3/69/33 5/70/33 7/71/33 9/72/33 11/73/33 13/74/33 15/75/33 16/76/33 18/77/33 19/78/33 20/79/33 21/80/33 22/81/33 24/82/33 26/83/33 28/84/33 30/85/33 31/86/33 32/87/33 34/88/33 36/89/33 37/90/33 38/91/33 40/92/33 41/93/33 43/94/33 45/95/33 47/96/33 48/97/33 50/98/33
f 60/45/34 35/43/34 86/99/34 87/100/34
f 66/101/35 65/102/35 96/103/35 95/104/35 94/105/35 93/106/35 92/107/35 91/108/35 90/109/35 89/110/35 88/111/35 87/112/35 86/113/35 85/114/35 84/115/35 83/116/35 82/117/35 81/118/35 80/119/35 79/120/35 78/121/35 77/122/35 76/123/35 75/124/35 74/125/35 73/126/35 72/127/35 71/128/35 70/129/35 69/130/35 68/131/35 67/132/35
f 17/19/36 53/17/36 73/133/36 74/134/36
f 61/47/37 60/45/37 87/100/37 88/135/37
f 54/21/38 17/19/38 74/134/38 75/136/38
f 39/49/39 61/47/39 88/135/39 89/137/39
f 55/23/40 54/21/40 75/136/40 76/138/40
f 62/51/41 39/49/41 89/137/41 90/139/41
f 56/25/42 55/23/42 76/138/42 77/140/42
f 42/53/43 62/51/43 90/139/43 91/141/43
f 57/27/44 56/25/44 77/140/44 78/142/44
f 44/55/45 42/53/45 91/141/45 92/143/45
f 23/29/46 57/27/46 78/142/46 79/144/46
f 52/3/47 51/2/47 65/145/47 66/146/47
f 46/57/48 44/55/48 92/143/48 93/147/48
f 25/31/49 23/29/49 79/144/49 80/148/49
f 4/5/50 52/3/50 66/146/50 67/149/50
f 63/59/51 46/57/51 93/147/51 94/150/51
f 27/33/52 25/31/52 80/148/52 81/151/52
f 6/7/53 4/5/53 67/149/53 68/152/53
f 49/61/54 63/59/54 94/150/54 95/153/54
f 29/35/55 27/33/55 81/151/55 82/154/55
f 8/9/56 6/7/56 68/152/56 69/155/56
f 64/63/57 49/61/57 95/153/57 96/156/57
f 58/37/58 29/35/58 82/154/58 83/157/58
f 10/11/59 8/9/59 69/155/59 70/158/59
f 51/65/60 64/63/60 96/156/60 65/159/60
f 59/39/61 58/37/61 83/157/61 84/160/61
f 12/13/62 10/11/62 70/158/62 71/161/62
f 33/41/63 59/39/63 84/160/63 85/162/63
f 14/15/64 12/13/64 71/161/64 72/163/64
f 35/43/65 33/41/65 85/162/65 86/99/65
f 53/17/66 14/15/66 72/163/66 73/133/66
