# Blender v2.83.19 OBJ File: 'seerose.blend'
# www.blender.org
mtllib waterlily_big_flower.mtl
o Waterlily_Cylinder.015
v -0.009434 0.005353 -0.417095
v 0.027839 0.005353 -0.413424
v 0.063679 0.005353 -0.402552
v 0.063679 0.030774 -0.402552
v 0.096709 0.005353 -0.384896
v 0.096709 0.030774 -0.384896
v 0.125661 0.005353 -0.361137
v 0.125661 0.030774 -0.361137
v 0.149421 0.005353 -0.332185
v 0.149421 0.030774 -0.332185
v 0.167076 0.005353 -0.299155
v 0.167076 0.030774 -0.299155
v 0.177948 0.005353 -0.263314
v 0.177948 0.030774 -0.263314
v 0.181619 0.005353 -0.226042
v 0.177948 0.005353 -0.188769
v 0.177948 0.030774 -0.188769
v 0.167076 0.005353 -0.152929
v 0.149421 0.005353 -0.119898
v 0.125661 0.005353 -0.090947
v 0.096709 0.005353 -0.067187
v 0.063679 0.005353 -0.049532
v 0.063679 0.030774 -0.049532
v 0.027839 0.005353 -0.038660
v 0.027839 0.030774 -0.038660
v -0.009434 0.005353 -0.034989
v -0.009434 0.030774 -0.034989
v -0.046707 0.005353 -0.038660
v -0.046707 0.030774 -0.038660
v -0.082547 0.005353 -0.049532
v -0.115577 0.005353 -0.067187
v -0.144529 0.005353 -0.090947
v -0.144529 0.030774 -0.090947
v -0.168289 0.005353 -0.119898
v -0.168289 0.030774 -0.119898
v -0.185944 0.005353 -0.152929
v -0.196816 0.005353 -0.188769
v -0.200487 0.005353 -0.226042
v -0.200487 0.030774 -0.226042
v -0.196816 0.005353 -0.263314
v -0.185944 0.005353 -0.299155
v -0.185944 0.030774 -0.299155
v -0.168289 0.005353 -0.332185
v -0.168289 0.030774 -0.332185
v -0.144529 0.005353 -0.361137
v -0.144529 0.030774 -0.361137
v -0.115577 0.005353 -0.384897
v -0.082547 0.005353 -0.402552
v -0.082547 0.030774 -0.402552
v -0.046706 0.005353 -0.413424
v -0.009434 0.030774 -0.417095
v 0.027839 0.030774 -0.413424
v 0.181619 0.030774 -0.226042
v 0.167076 0.030774 -0.152929
v 0.149421 0.030774 -0.119898
v 0.125661 0.030774 -0.090947
v 0.096709 0.030774 -0.067187
v -0.082547 0.030774 -0.049532
v -0.115577 0.030774 -0.067187
v -0.185944 0.030774 -0.152929
v -0.196816 0.030774 -0.188769
v -0.196816 0.030774 -0.263314
v -0.115577 0.030774 -0.384897
v -0.046706 0.030774 -0.413424
v -0.009434 0.012256 -0.393001
v 0.023138 0.012256 -0.389793
v 0.054459 0.012256 -0.380292
v 0.083324 0.012256 -0.364863
v 0.108624 0.012256 -0.344100
v 0.129388 0.012256 -0.318799
v 0.144816 0.012256 -0.289934
v 0.154317 0.012256 -0.258614
v 0.157526 0.012256 -0.226042
v 0.154317 0.012256 -0.193469
v 0.144816 0.012256 -0.162149
v 0.129388 0.012256 -0.133284
v 0.108624 0.012256 -0.107983
v 0.083324 0.012256 -0.087220
v 0.054459 0.012256 -0.071791
v 0.023138 0.012256 -0.062290
v -0.009434 0.012256 -0.059082
v -0.042006 0.012256 -0.062290
v -0.073327 0.012256 -0.071791
v -0.102192 0.012256 -0.087220
v -0.127492 0.012256 -0.107984
v -0.148256 0.012256 -0.133284
v -0.163685 0.012256 -0.162149
v -0.173185 0.012256 -0.193470
v -0.176393 0.012256 -0.226042
v -0.173185 0.012256 -0.258614
v -0.163684 0.012256 -0.289934
v -0.148256 0.012256 -0.318800
v -0.127492 0.012256 -0.344100
v -0.102192 0.012256 -0.364864
v -0.073326 0.012256 -0.380292
v -0.042006 0.012256 -0.389793
vt 1.000000 0.500000
vt 1.000000 1.000000
vt 0.968750 1.000000
vt 0.968750 0.500000
vt 0.937500 1.000000
vt 0.937500 0.500000
vt 0.906250 1.000000
vt 0.906250 0.500000
vt 0.875000 1.000000
vt 0.875000 0.500000
vt 0.843750 1.000000
vt 0.843750 0.500000
vt 0.812500 1.000000
vt 0.812500 0.500000
vt 0.781250 1.000000
vt 0.781250 0.500000
vt 0.750000 1.000000
vt 0.750000 0.500000
vt 0.718750 1.000000
vt 0.718750 0.500000
vt 0.687500 1.000000
vt 0.687500 0.500000
vt 0.656250 1.000000
vt 0.656250 0.500000
vt 0.625000 1.000000
vt 0.625000 0.500000
vt 0.593750 1.000000
vt 0.593750 0.500000
vt 0.562500 1.000000
vt 0.562500 0.500000
vt 0.531250 1.000000
vt 0.531250 0.500000
vt 0.500000 1.000000
vt 0.500000 0.500000
vt 0.468750 1.000000
vt 0.468750 0.500000
vt 0.437500 1.000000
vt 0.437500 0.500000
vt 0.406250 1.000000
vt 0.406250 0.500000
vt 0.375000 1.000000
vt 0.375000 0.500000
vt 0.343750 1.000000
vt 0.343750 0.500000
vt 0.312500 1.000000
vt 0.312500 0.500000
vt 0.281250 1.000000
vt 0.281250 0.500000
vt 0.250000 1.000000
vt 0.250000 0.500000
vt 0.218750 1.000000
vt 0.218750 0.500000
vt 0.187500 1.000000
vt 0.187500 0.500000
vt 0.156250 1.000000
vt 0.156250 0.500000
vt 0.125000 1.000000
vt 0.125000 0.500000
vt 0.093750 1.000000
vt 0.093750 0.500000
vt 0.062500 1.000000
vt 0.062500 0.500000
vt 0.031250 1.000000
vt 0.031250 0.500000
vt 0.000000 1.000000
vt 0.000000 0.500000
vt 0.750000 0.490000
vt 0.796822 0.485388
vt 0.841844 0.471731
vt 0.883337 0.449553
vt 0.919706 0.419706
vt 0.949553 0.383337
vt 0.971731 0.341844
vt 0.985388 0.296822
vt 0.990000 0.250000
vt 0.985388 0.203178
vt 0.971731 0.158156
vt 0.949553 0.116663
vt 0.919706 0.080294
vt 0.883337 0.050447
vt 0.841844 0.028269
vt 0.796822 0.014612
vt 0.750000 0.010000
vt 0.703178 0.014612
vt 0.658156 0.028269
vt 0.616663 0.050447
vt 0.580294 0.080294
vt 0.550447 0.116663
vt 0.528269 0.158156
vt 0.514611 0.203179
vt 0.510000 0.250000
vt 0.514612 0.296822
vt 0.528269 0.341844
vt 0.550447 0.383337
vt 0.580295 0.419706
vt 0.616663 0.449553
vt 0.658156 0.471731
vt 0.703179 0.485389
vt 0.343750 1.000000
vt 0.312500 1.000000
vt 0.296822 0.485388
vt 0.250000 0.490000
vt 0.203179 0.485389
vt 0.158156 0.471731
vt 0.116663 0.449553
vt 0.080295 0.419706
vt 0.050447 0.383337
vt 0.028269 0.341844
vt 0.014612 0.296822
vt 0.010000 0.250000
vt 0.014611 0.203179
vt 0.028269 0.158156
vt 0.050447 0.116663
vt 0.080294 0.080294
vt 0.116663 0.050447
vt 0.158156 0.028269
vt 0.203178 0.014612
vt 0.250000 0.010000
vt 0.296822 0.014612
vt 0.341844 0.028269
vt 0.383337 0.050447
vt 0.419706 0.080294
vt 0.449553 0.116663
vt 0.471731 0.158156
vt 0.485388 0.203178
vt 0.490000 0.250000
vt 0.485388 0.296822
vt 0.471731 0.341844
vt 0.449553 0.383337
vt 0.419706 0.419706
vt 0.383337 0.449553
vt 0.341844 0.471731
vt 0.750000 1.000000
vt 0.718750 1.000000
vt 0.281250 1.000000
vt 0.687500 1.000000
vt 0.250000 1.000000
vt 0.656250 1.000000
vt 0.218750 1.000000
vt 0.625000 1.000000
vt 0.187500 1.000000
vt 0.593750 1.000000
vt 0.156250 1.000000
vt 0.562500 1.000000
vt 1.000000 1.000000
vt 0.968750 1.000000
vt 0.125000 1.000000
vt 0.531250 1.000000
vt 0.937500 1.000000
vt 0.093750 1.000000
vt 0.500000 1.000000
vt 0.906250 1.000000
vt 0.062500 1.000000
vt 0.468750 1.000000
vt 0.875000 1.000000
vt 0.031250 1.000000
vt 0.437500 1.000000
vt 0.843750 1.000000
vt 0.000000 1.000000
vt 0.406250 1.000000
vt 0.812500 1.000000
vt 0.375000 1.000000
vt 0.781250 1.000000
vn 0.0980 0.0000 -0.9952
vn 0.2903 0.0000 -0.9569
vn 0.4714 0.0000 -0.8819
vn 0.6344 0.0000 -0.7730
vn 0.7730 0.0000 -0.6344
vn 0.8819 0.0000 -0.4714
vn 0.9569 0.0000 -0.2903
vn 0.9952 0.0000 -0.0980
vn 0.9952 0.0000 0.0980
vn 0.9569 0.0000 0.2903
vn 0.8819 0.0000 0.4714
vn 0.7730 0.0000 0.6344
vn 0.6344 0.0000 0.7730
vn 0.4714 0.0000 0.8819
vn 0.2903 0.0000 0.9569
vn 0.0980 0.0000 0.9952
vn -0.0980 0.0000 0.9952
vn -0.2903 0.0000 0.9569
vn -0.4714 0.0000 0.8819
vn -0.6344 0.0000 0.7730
vn -0.7730 0.0000 0.6344
vn -0.8819 0.0000 0.4714
vn -0.9569 0.0000 0.2903
vn -0.9952 0.0000 0.0980
vn -0.9952 0.0000 -0.0980
vn -0.9569 0.0000 -0.2903
vn -0.8819 0.0000 -0.4714
vn -0.7730 0.0000 -0.6344
vn -0.6344 0.0000 -0.7730
vn -0.4714 0.0000 -0.8819
vn -0.2903 0.0000 -0.9569
vn -0.0980 0.0000 -0.9952
vn 0.0000 -1.0000 0.0000
vn 0.5391 0.7915 -0.2881
vn 0.0000 1.0000 0.0000
vn -0.6083 0.7915 -0.0599
vn 0.5849 0.7915 -0.1774
vn -0.5849 0.7915 -0.1774
vn 0.6083 0.7915 -0.0599
vn -0.5391 0.7915 -0.2881
vn 0.6083 0.7915 0.0599
vn -0.4725 0.7915 -0.3878
vn 0.5849 0.7915 0.1774
vn -0.3878 0.7915 -0.4725
vn 0.5391 0.7915 0.2881
vn -0.2881 0.7915 -0.5391
vn -0.0599 0.7915 0.6083
vn 0.4725 0.7915 0.3878
vn -0.1774 0.7915 -0.5849
vn -0.1774 0.7915 0.5849
vn 0.3878 0.7915 0.4725
vn -0.0599 0.7915 -0.6083
vn -0.2881 0.7915 0.5391
vn 0.2881 0.7915 0.5391
vn 0.0599 0.7915 -0.6083
vn -0.3878 0.7915 0.4725
vn 0.1774 0.7915 0.5849
vn 0.1774 0.7915 -0.5849
vn -0.4725 0.7915 0.3878
vn 0.0599 0.7915 0.6083
vn 0.2881 0.7915 -0.5391
vn -0.5391 0.7915 0.2881
vn 0.3878 0.7915 -0.4725
vn -0.5849 0.7915 0.1774
vn 0.4725 0.7915 -0.3878
vn -0.6083 0.7915 0.0599
usemtl Material.004
s off
f 1/1/1 51/2/1 52/3/1 2/4/1
f 2/4/2 52/3/2 4/5/2 3/6/2
f 3/6/3 4/5/3 6/7/3 5/8/3
f 5/8/4 6/7/4 8/9/4 7/10/4
f 7/10/5 8/9/5 10/11/5 9/12/5
f 9/12/6 10/11/6 12/13/6 11/14/6
f 11/14/7 12/13/7 14/15/7 13/16/7
f 13/16/8 14/15/8 53/17/8 15/18/8
f 15/18/9 53/17/9 17/19/9 16/20/9
f 16/20/10 17/19/10 54/21/10 18/22/10
f 18/22/11 54/21/11 55/23/11 19/24/11
f 19/24/12 55/23/12 56/25/12 20/26/12
f 20/26/13 56/25/13 57/27/13 21/28/13
f 21/28/14 57/27/14 23/29/14 22/30/14
f 22/30/15 23/29/15 25/31/15 24/32/15
f 24/32/16 25/31/16 27/33/16 26/34/16
f 26/34/17 27/33/17 29/35/17 28/36/17
f 28/36/18 29/35/18 58/37/18 30/38/18
f 30/38/19 58/37/19 59/39/19 31/40/19
f 31/40/20 59/39/20 33/41/20 32/42/20
f 32/42/21 33/41/21 35/43/21 34/44/21
f 34/44/22 35/43/22 60/45/22 36/46/22
f 36/46/23 60/45/23 61/47/23 37/48/23
f 37/48/24 61/47/24 39/49/24 38/50/24
f 38/50/25 39/49/25 62/51/25 40/52/25
f 40/52/26 62/51/26 42/53/26 41/54/26
f 41/54/27 42/53/27 44/55/27 43/56/27
f 43/56/28 44/55/28 46/57/28 45/58/28
f 45/58/29 46/57/29 63/59/29 47/60/29
f 47/60/30 63/59/30 49/61/30 48/62/30
f 48/62/31 49/61/31 64/63/31 50/64/31
f 50/64/32 64/63/32 51/65/32 1/66/32
f 1/67/33 2/68/33 3/69/33 5/70/33 7/71/33 9/72/33 11/73/33 13/74/33 15/75/33 16/76/33 18/77/33 19/78/33 20/79/33 21/80/33 22/81/33 24/82/33 26/83/33 28/84/33 30/85/33 31/86/33 32/87/33 34/88/33 36/89/33 37/90/33 38/91/33 40/92/33 41/93/33 43/94/33 45/95/33 47/96/33 48/97/33 50/98/33
f 60/45/34 35/43/34 86/99/34 87/100/34
f 66/101/35 65/102/35 96/103/35 95/104/35 94/105/35 93/106/35 92/107/35 91/108/35 90/109/35 89/110/35 88/111/35 87/112/35 86/113/35 85/114/35 84/115/35 83/116/35 82/117/35 81/118/35 80/119/35 79/120/35 78/121/35 77/122/35 76/123/35 75/124/35 74/125/35 73/126/35 72/127/35 71/128/35 70/129/35 69/130/35 68/131/35 67/132/35
f 17/19/36 53/17/36 73/133/36 74/134/36
f 61/47/37 60/45/37 87/100/37 88/135/37
f 54/21/38 17/19/38 74/134/38 75/136/38
f 39/49/39 61/47/39 88/135/39 89/137/39
f 55/23/40 54/21/40 75/136/40 76/138/40
f 62/51/41 39/49/41 89/137/41 90/139/41
f 56/25/42 55/23/42 76/138/42 77/140/42
f 42/53/43 62/51/43 90/139/43 91/141/43
f 57/27/44 56/25/44 77/140/44 78/142/44
f 44/55/45 42/53/45 91/141/45 92/143/45
f 23/29/46 57/27/46 78/142/46 79/144/46
f 52/3/47 51/2/47 65/145/47 66/146/47
f 46/57/48 44/55/48 92/143/48 93/147/48
f 25/31/49 23/29/49 79/144/49 80/148/49
f 4/5/50 52/3/50 66/146/50 67/149/50
f 63/59/51 46/57/51 93/147/51 94/150/51
f 27/33/52 25/31/52 80/148/52 81/151/52
f 6/7/53 4/5/53 67/149/53 68/152/53
f 49/61/54 63/59/54 94/150/54 95/153/54
f 29/35/55 27/33/55 81/151/55 82/154/55
f 8/9/56 6/7/56 68/152/56 69/155/56
f 64/63/57 49/61/57 95/153/57 96/156/57
f 58/37/58 29/35/58 82/154/58 83/157/58
f 10/11/59 8/9/59 69/155/59 70/158/59
f 51/65/60 64/63/60 96/156/60 65/159/60
f 59/39/61 58/37/61 83/157/61 84/160/61
f 12/13/62 10/11/62 70/158/62 71/161/62
f 33/41/63 59/39/63 84/160/63 85/162/63
f 14/15/64 12/13/64 71/161/64 72/163/64
f 35/43/65 33/41/65 85/162/65 86/99/65
f 53/17/66 14/15/66 72/163/66 73/133/66
o Flower_Purple_Plane.001
v -0.020384 0.019685 -0.286923
v -0.025284 0.019936 -0.300968
v -0.071935 0.047037 -0.287214
v -0.071925 0.047137 -0.300486
v -0.058602 0.036868 -0.276675
v -0.047933 0.027453 -0.270414
v -0.037063 0.022439 -0.273589
v -0.038277 0.022574 -0.311290
v -0.048277 0.027967 -0.314601
v -0.058091 0.036619 -0.310935
v -0.013857 0.019439 -0.292624
v -0.073241 0.047209 -0.293914
v -0.039853 0.020778 -0.294350
v -0.051702 0.028143 -0.294350
v -0.063004 0.039073 -0.294350
v -0.009856 0.019685 -0.287321
v -0.023902 0.019936 -0.282421
v -0.010147 0.047037 -0.235770
v -0.023420 0.047137 -0.235781
v 0.000391 0.036868 -0.249103
v 0.006652 0.027453 -0.259772
v 0.003478 0.022439 -0.270643
v -0.034224 0.022574 -0.269428
v -0.037534 0.027967 -0.259429
v -0.033869 0.036619 -0.249615
v -0.015557 0.019439 -0.293848
v -0.016848 0.047209 -0.234465
v -0.017284 0.020778 -0.267853
v -0.017284 0.028143 -0.256004
v -0.017284 0.039073 -0.244702
v -0.020782 0.019685 -0.297451
v -0.006737 0.019936 -0.302351
v -0.020492 0.047037 -0.349001
v -0.007219 0.047137 -0.348991
v -0.031030 0.036868 -0.335669
v -0.037291 0.027453 -0.325000
v -0.034117 0.022439 -0.314129
v 0.003585 0.022574 -0.315343
v 0.006895 0.027967 -0.325343
v 0.003230 0.036619 -0.335157
v -0.015082 0.019439 -0.290924
v -0.013791 0.047209 -0.350307
v -0.013355 0.020778 -0.316919
v -0.013355 0.028143 -0.328768
v -0.013355 0.039073 -0.340070
v -0.010255 0.019685 -0.297849
v -0.005355 0.019936 -0.283804
v 0.041296 0.047037 -0.297558
v 0.041286 0.047137 -0.284286
v 0.027963 0.036868 -0.308096
v 0.017294 0.027453 -0.314358
v 0.006424 0.022439 -0.311183
v 0.007638 0.022574 -0.273482
v 0.017638 0.027967 -0.270171
v 0.027452 0.036619 -0.273837
v -0.016782 0.019439 -0.292148
v 0.042602 0.047209 -0.290857
v 0.009214 0.020778 -0.290422
v 0.021063 0.028143 -0.290422
v 0.032365 0.039073 -0.290422
v -0.012893 0.017807 -0.285853
v -0.027345 0.016437 -0.289108
v -0.043047 0.026729 -0.236692
v -0.054408 0.026828 -0.243555
v -0.025776 0.021498 -0.244849
v -0.013594 0.016105 -0.252861
v -0.010130 0.014935 -0.264695
v -0.042984 0.014665 -0.283227
v -0.051631 0.016478 -0.275354
v -0.054776 0.021431 -0.263098
v -0.014528 0.019716 -0.294150
v -0.049446 0.026464 -0.239064
v -0.028966 0.012451 -0.273673
v -0.036023 0.015520 -0.262037
v -0.043419 0.022137 -0.249841
v -0.017746 0.017807 -0.298919
v -0.003294 0.016437 -0.295664
v 0.012408 0.026729 -0.348079
v 0.023769 0.026828 -0.341217
v -0.004863 0.021498 -0.339922
v -0.017045 0.016105 -0.331910
v -0.020509 0.014935 -0.320077
v 0.012345 0.014665 -0.301545
v 0.020992 0.016478 -0.309418
v 0.024137 0.021431 -0.321674
v -0.016111 0.019716 -0.290622
v 0.018807 0.026464 -0.345708
v -0.001673 0.012451 -0.311099
v 0.005384 0.015520 -0.322735
v 0.012780 0.022137 -0.334931
v -0.008786 0.017807 -0.294813
v -0.012041 0.016437 -0.280361
v 0.040374 0.026729 -0.264658
v 0.033511 0.026828 -0.253297
v 0.032217 0.021498 -0.281930
v 0.024205 0.016105 -0.294112
v 0.012372 0.014935 -0.297576
v -0.006160 0.014665 -0.264721
v 0.001713 0.016478 -0.256075
v 0.013968 0.021431 -0.252929
v -0.017084 0.019716 -0.293178
v 0.038002 0.026464 -0.258259
v 0.003393 0.012451 -0.278740
v 0.015030 0.015520 -0.271682
v 0.027225 0.022137 -0.264286
v -0.021853 0.017807 -0.289959
v -0.018597 0.016437 -0.304411
v -0.071013 0.026729 -0.320114
v -0.064150 0.026827 -0.331474
v -0.062856 0.021498 -0.302842
v -0.054844 0.016105 -0.290660
v -0.043011 0.014935 -0.287196
v -0.024479 0.014665 -0.320050
v -0.032352 0.016478 -0.328697
v -0.044607 0.021431 -0.331842
v -0.013555 0.019716 -0.291594
v -0.068641 0.026464 -0.326512
v -0.034032 0.012451 -0.306032
v -0.045669 0.015520 -0.313090
v -0.057864 0.022137 -0.320486
vt 0.500000 0.750000
vt 1.000000 0.750000
vt 1.000000 1.000000
vt 0.500000 1.000000
vt 0.500000 0.000000
vt 1.000000 0.000000
vt 1.000000 0.250000
vt 0.500000 0.250000
vt 1.000000 0.500000
vt 0.500000 0.500000
vt 0.000000 0.500000
vt 0.000000 0.750000
vt 0.000000 0.250000
vt 0.000000 0.000000
vt 0.000000 1.000000
vt 0.500000 0.750000
vt 1.000000 0.750000
vt 1.000000 1.000000
vt 0.500000 1.000000
vt 0.500000 0.000000
vt 1.000000 0.000000
vt 1.000000 0.250000
vt 0.500000 0.250000
vt 1.000000 0.500000
vt 0.500000 0.500000
vt 0.000000 0.500000
vt 0.000000 0.750000
vt 0.000000 0.250000
vt 0.000000 0.000000
vt 0.000000 1.000000
vt 0.500000 0.750000
vt 1.000000 0.750000
vt 1.000000 1.000000
vt 0.500000 1.000000
vt 0.500000 0.000000
vt 1.000000 0.000000
vt 1.000000 0.250000
vt 0.500000 0.250000
vt 1.000000 0.500000
vt 0.500000 0.500000
vt 0.000000 0.500000
vt 0.000000 0.750000
vt 0.000000 0.250000
vt 0.000000 0.000000
vt 0.000000 1.000000
vt 0.500000 0.750000
vt 1.000000 0.750000
vt 1.000000 1.000000
vt 0.500000 1.000000
vt 0.500000 0.000000
vt 1.000000 0.000000
vt 1.000000 0.250000
vt 0.500000 0.250000
vt 1.000000 0.500000
vt 0.500000 0.500000
vt 0.000000 0.500000
vt 0.000000 0.750000
vt 0.000000 0.250000
vt 0.000000 0.000000
vt 0.000000 1.000000
vt 0.500000 0.750000
vt 1.000000 0.750000
vt 1.000000 1.000000
vt 0.500000 1.000000
vt 0.500000 0.000000
vt 1.000000 0.000000
vt 1.000000 0.250000
vt 0.500000 0.250000
vt 1.000000 0.500000
vt 0.500000 0.500000
vt 0.000000 0.500000
vt 0.000000 0.750000
vt 0.000000 0.250000
vt 0.000000 0.000000
vt 0.000000 1.000000
vt 0.500000 0.750000
vt 1.000000 0.750000
vt 1.000000 1.000000
vt 0.500000 1.000000
vt 0.500000 0.000000
vt 1.000000 0.000000
vt 1.000000 0.250000
vt 0.500000 0.250000
vt 1.000000 0.500000
vt 0.500000 0.500000
vt 0.000000 0.500000
vt 0.000000 0.750000
vt 0.000000 0.250000
vt 0.000000 0.000000
vt 0.000000 1.000000
vt 0.500000 0.750000
vt 1.000000 0.750000
vt 1.000000 1.000000
vt 0.500000 1.000000
vt 0.500000 0.000000
vt 1.000000 0.000000
vt 1.000000 0.250000
vt 0.500000 0.250000
vt 1.000000 0.500000
vt 0.500000 0.500000
vt 0.000000 0.500000
vt 0.000000 0.750000
vt 0.000000 0.250000
vt 0.000000 0.000000
vt 0.000000 1.000000
vt 0.500000 0.750000
vt 1.000000 0.750000
vt 1.000000 1.000000
vt 0.500000 1.000000
vt 0.500000 0.000000
vt 1.000000 0.000000
vt 1.000000 0.250000
vt 0.500000 0.250000
vt 1.000000 0.500000
vt 0.500000 0.500000
vt 0.000000 0.500000
vt 0.000000 0.750000
vt 0.000000 0.250000
vt 0.000000 0.000000
vt 0.000000 1.000000
vn 0.6345 0.7680 0.0869
vn 0.0837 0.9948 0.0577
vn 0.4898 0.8657 0.1036
vn 0.6859 0.7202 0.1038
vn 0.6900 0.7188 -0.0855
vn 0.4671 0.8798 -0.0877
vn 0.0789 0.9950 -0.0606
vn 0.6309 0.7725 -0.0724
vn 0.0869 0.7680 -0.6345
vn 0.0577 0.9948 -0.0837
vn 0.1036 0.8657 -0.4898
vn 0.1038 0.7202 -0.6859
vn -0.0855 0.7188 -0.6900
vn -0.0877 0.8798 -0.4671
vn -0.0606 0.9950 -0.0789
vn -0.0724 0.7725 -0.6309
vn -0.0869 0.7680 0.6345
vn -0.0577 0.9948 0.0837
vn -0.1036 0.8657 0.4898
vn -0.1038 0.7202 0.6859
vn 0.0855 0.7188 0.6900
vn 0.0877 0.8798 0.4671
vn 0.0606 0.9950 0.0789
vn 0.0724 0.7725 0.6309
vn -0.6345 0.7680 -0.0869
vn -0.0837 0.9948 -0.0577
vn -0.4898 0.8657 -0.1036
vn -0.6859 0.7202 -0.1038
vn -0.6900 0.7188 0.0855
vn -0.4671 0.8798 0.0877
vn -0.0789 0.9950 0.0606
vn -0.6309 0.7725 0.0724
vn 0.2544 0.9337 -0.2519
vn -0.0790 0.9672 0.2414
vn 0.1812 0.9785 -0.0990
vn 0.3023 0.9054 -0.2981
vn 0.1426 0.9054 -0.3999
vn 0.0042 0.9844 -0.1759
vn -0.1824 0.9658 0.1840
vn 0.1157 0.9367 -0.3304
vn -0.2544 0.9337 0.2519
vn 0.0790 0.9672 -0.2414
vn -0.1812 0.9785 0.0990
vn -0.3023 0.9054 0.2981
vn -0.1426 0.9054 0.3999
vn -0.0042 0.9844 0.1759
vn 0.1824 0.9658 -0.1840
vn -0.1157 0.9367 0.3304
vn -0.2519 0.9337 -0.2544
vn 0.2414 0.9672 0.0790
vn -0.0990 0.9785 -0.1812
vn -0.2981 0.9054 -0.3023
vn -0.3999 0.9054 -0.1426
vn -0.1759 0.9844 -0.0042
vn 0.1840 0.9658 0.1824
vn -0.3304 0.9367 -0.1157
vn 0.2519 0.9337 0.2544
vn -0.2414 0.9672 -0.0790
vn 0.0990 0.9785 0.1812
vn 0.2981 0.9054 0.3023
vn 0.3999 0.9054 0.1426
vn 0.1759 0.9844 0.0042
vn -0.1840 0.9658 -0.1824
vn 0.3304 0.9367 0.1157
usemtl Material.005
s off
f 111/164/67 106/165/67 100/166/67 108/167/67
f 107/168/68 98/169/68 104/170/68 109/171/68
f 109/171/69 104/170/69 105/172/69 110/173/69
f 110/173/70 105/172/70 106/165/70 111/164/70
f 102/174/71 110/173/71 111/164/71 101/175/71
f 103/176/72 109/171/72 110/173/72 102/174/72
f 97/177/73 107/168/73 109/171/73 103/176/73
f 101/175/74 111/164/74 108/167/74 99/178/74
f 126/179/75 121/180/75 115/181/75 123/182/75
f 122/183/76 113/184/76 119/185/76 124/186/76
f 124/186/77 119/185/77 120/187/77 125/188/77
f 125/188/78 120/187/78 121/180/78 126/179/78
f 117/189/79 125/188/79 126/179/79 116/190/79
f 118/191/80 124/186/80 125/188/80 117/189/80
f 112/192/81 122/183/81 124/186/81 118/191/81
f 116/190/82 126/179/82 123/182/82 114/193/82
f 141/194/83 136/195/83 130/196/83 138/197/83
f 137/198/84 128/199/84 134/200/84 139/201/84
f 139/201/85 134/200/85 135/202/85 140/203/85
f 140/203/86 135/202/86 136/195/86 141/194/86
f 132/204/87 140/203/87 141/194/87 131/205/87
f 133/206/88 139/201/88 140/203/88 132/204/88
f 127/207/89 137/198/89 139/201/89 133/206/89
f 131/205/90 141/194/90 138/197/90 129/208/90
f 156/209/91 151/210/91 145/211/91 153/212/91
f 152/213/92 143/214/92 149/215/92 154/216/92
f 154/216/93 149/215/93 150/217/93 155/218/93
f 155/218/94 150/217/94 151/210/94 156/209/94
f 147/219/95 155/218/95 156/209/95 146/220/95
f 148/221/96 154/216/96 155/218/96 147/219/96
f 142/222/97 152/213/97 154/216/97 148/221/97
f 146/220/98 156/209/98 153/212/98 144/223/98
usemtl Material.003
f 171/224/99 166/225/99 160/226/99 168/227/99
f 167/228/100 158/229/100 164/230/100 169/231/100
f 169/231/101 164/230/101 165/232/101 170/233/101
f 170/233/102 165/232/102 166/225/102 171/224/102
f 162/234/103 170/233/103 171/224/103 161/235/103
f 163/236/104 169/231/104 170/233/104 162/234/104
f 157/237/105 167/228/105 169/231/105 163/236/105
f 161/235/106 171/224/106 168/227/106 159/238/106
f 186/239/107 181/240/107 175/241/107 183/242/107
f 182/243/108 173/244/108 179/245/108 184/246/108
f 184/246/109 179/245/109 180/247/109 185/248/109
f 185/248/110 180/247/110 181/240/110 186/239/110
f 177/249/111 185/248/111 186/239/111 176/250/111
f 178/251/112 184/246/112 185/248/112 177/249/112
f 172/252/113 182/243/113 184/246/113 178/251/113
f 176/250/114 186/239/114 183/242/114 174/253/114
f 201/254/115 196/255/115 190/256/115 198/257/115
f 197/258/116 188/259/116 194/260/116 199/261/116
f 199/261/117 194/260/117 195/262/117 200/263/117
f 200/263/118 195/262/118 196/255/118 201/254/118
f 192/264/119 200/263/119 201/254/119 191/265/119
f 193/266/120 199/261/120 200/263/120 192/264/120
f 187/267/121 197/258/121 199/261/121 193/266/121
f 191/265/122 201/254/122 198/257/122 189/268/122
f 216/269/123 211/270/123 205/271/123 213/272/123
f 212/273/124 203/274/124 209/275/124 214/276/124
f 214/276/125 209/275/125 210/277/125 215/278/125
f 215/278/126 210/277/126 211/270/126 216/269/126
f 207/279/127 215/278/127 216/269/127 206/280/127
f 208/281/128 214/276/128 215/278/128 207/279/128
f 202/282/129 212/273/129 214/276/129 208/281/129
f 206/280/130 216/269/130 213/272/130 204/283/130
